<?xml version="1.0" encoding="UTF-8" standalone="no"?>
<!-- Created with Inkscape (http://www.inkscape.org/) -->

<svg
   width="1122.6199mm"
   height="1397.6406mm"
   viewBox="0 0 1122.6199 1397.6406"
   version="1.1"
   id="svg33"
   xml:space="preserve"
   inkscape:export-filename="../681b28f5/links.svg"
   inkscape:export-xdpi="96"
   inkscape:export-ydpi="96"
   sodipodi:docname="bitmap.svg"
   inkscape:version="1.2.2 (732a01da63, 2022-12-09, custom)"
   xmlns:inkscape="http://www.inkscape.org/namespaces/inkscape"
   xmlns:sodipodi="http://sodipodi.sourceforge.net/DTD/sodipodi-0.dtd"
   xmlns="http://www.w3.org/2000/svg"
   xmlns:svg="http://www.w3.org/2000/svg"><sodipodi:namedview
     id="namedview35"
     pagecolor="#ffffff"
     bordercolor="#000000"
     borderopacity="0.25"
     inkscape:showpageshadow="2"
     inkscape:pageopacity="0.18823529"
     inkscape:pagecheckerboard="false"
     inkscape:deskcolor="#d1d1d1"
     inkscape:document-units="mm"
     showgrid="false"
     showguides="true"
     inkscape:zoom="0.17870593"
     inkscape:cx="1096.7739"
     inkscape:cy="2520.9012"
     inkscape:window-width="1920"
     inkscape:window-height="1080"
     inkscape:window-x="1680"
     inkscape:window-y="27"
     inkscape:window-maximized="1"
     inkscape:current-layer="layer3" /><defs
     id="defs30" /><g
     inkscape:label="Layer 1"
     inkscape:groupmode="layer"
     id="layer1"
     transform="translate(-45.857773,-45.245229)"><path
       style="fill:#008000;stroke-width:0.346607"
       d="m 55.585795,468.55899 -8.440784,-29.94867 10.866627,-24.36423 15.495602,-12.67692 4.084343,-13.19535 -13.614366,3.29886 -13.09448,-4.17068 -2.0546,-15.59878 -2.970368,-13.59586 10.940954,-10.27351 -3.242672,-6.07928 8.094372,-12.60624 -2.970369,-10.81541 25.273086,-13.05398 -1.905958,-11.14536 9.57948,-6.03214 -2.475313,-7.9643 18.862071,-8.64767 13.26772,-25.61146 -6.85658,-7.68155 -4.28235,-32.58774 5.86653,-6.36204 -7.72302,-6.78616 3.01986,-6.47984 c 0,0 -15.817302,-11.9229 -15.743082,-13.7137 0.0743,-1.7908 13.143972,-11.97005 13.143972,-11.97005 l 0.0652,-11.99688 10.00942,3.09005 -1.95555,-9.66086 28.36735,-23.61493 1.48523,-19.439528 17.37684,-17.083223 6.95565,7.210298 7.0547,-11.380964 17.55009,-2.332753 17.45113,-11.074636 10.12412,-3.982161 3.61394,-8.836155 17.47587,-6.149962 3.98527,9.213161 -11.01524,9.613743 2.30207,14.962542 25.66917,-11.82865 24.62965,-6.267785 25.37212,1.295969 7.7973,11.545912 17.20357,2.120674 30.32278,-5.160319 13.68859,6.149973 24.65438,0.306313 15.96587,-9.42523 32.22885,-8.859705 19.23334,-1.201722 -12.12915,12.205666 12.32712,0.494826 15.89168,4.971817 13.04502,7.964311 -0.89113,9.990736 2.64859,7.587322 14.3074,-5.231005 18.86203,5.843635 13.96092,6.14996 16.98321,13.39596 0.12381,10.93324 3.88621,-3.58157 11.83209,3.69942 14.753,9.59013 4.95062,6.07929 8.06965,-1.43734 11.63406,1.24883 10.47064,0.65976 1.83178,-5.3488 20.14917,-0.23564 26.01572,5.51376 10.47075,0.32989 12.67365,0.80113 17.27789,10.79188 22.69868,12.4413 10.5697,9.18961 c 0,0 5.14864,13.57235 5.69326,15.83441 0.54464,2.26205 9.92611,19.48666 9.92611,19.48666 0,0 17.67389,7.96428 18.61451,9.70797 0.94061,1.74366 0.61882,9.331 0.61882,9.331 l -19.45613,21.77224 -19.55513,19.65163 -7.327,12.39414 -1.11387,7.51665 c 0,0 12.94594,-6.29137 15.52031,-7.72872 2.57438,-1.43731 12.52525,-9.04818 12.52525,-9.04818 l 2.97035,14.6798 17.42639,6.05569 17.45106,-2.73332 5.09915,1.81436 8.04488,-7.87005 10.94097,-13.97291 23.11964,-6.97467 21.75811,8.08214 27.57525,7.49303 20.39676,13.31316 6.95565,10.93328 18.83732,-3.08678 28.91185,7.98786 20.768,2.37989 27.6743,-2.00286 37.5756,16.72976 28.6935,23.67928 22.6246,11.71087 27.0554,0.25921 10.3717,14.30279 7.0051,19.20389 3.0447,26.17858 -10.0746,26.95617 -23.1692,24.17568 -24.3573,17.08324 -13.5895,24.59983 -12.8718,15.66944 -10.3468,-4.38271 -7.0053,21.67802 c 0,0 -2.8219,20.45272 -1.906,19.9815 0.9158,-0.47127 6.4112,23.77512 6.4112,23.77512 l -8.9821,25.3418 0.3959,13.61944 -12.5251,10.62694 -1.2624,28.2757 c 0,0 -7.8962,3.60516 -8.2924,5.39595 -0.3961,1.7908 -8.2182,17.24816 -8.2182,17.24816 l -10.4211,7.54019 -4.109,22.6441 c 0,0 -15.9163,4.5241 -17.0055,6.1971 -1.0891,1.67298 -6.43591,6.03213 -6.43591,6.03213 l 2.3269,4.99536 -16.88188,3.20458 -22.47596,0.75402 -15.24811,-1.2017 -7.3765,1.83793 4.28233,5.1603 -19.28278,6.9511 -1.78227,5.39595 -13.26776,-2.02643 -23.83755,14.70336 -15.86685,9.5195 -2.15352,9.51945 -9.05974,0.21208 -2.05445,10.86259 0.42081,26.6734 -3.35439,23.19682 -1.06441,10.46196 -10.9905,4.61839 -11.6836,13.71371 -13.83707,26.64982 -24.97617,24.10501 -11.68354,9.82583 -6.16359,17.03608 -11.41125,9.82581 -9.01022,15.05681 c 0,0 -11.93116,9.82585 -13.66388,10.72115 -1.73267,0.8954 -21.18883,2.969 -21.18883,2.969 l -7.20322,-1.2017 -9.72803,5.4666 -13.54004,-5.9379 -6.60913,-6.12638 -13.16882,2.52118 -7.82207,-8.78896 -3.81202,9.14246 11.63409,6.8097 12.12915,5.5609 4.90114,6.3385 -4.92587,9.9672 7.35174,8.5062 8.06951,1.1074 0.81695,10.9568 -12.72322,20.8063 -2.17828,6.4092 -31.41204,15.4338 -22.67405,6.4798 -22.42655,1.6023 -12.20335,-1.8851 2.72286,8.1294 3.34172,11.3808 -3.93575,8.8126 3.80423,9.7414 -3.66349,6.8098 -16.48571,5.0189 -10.0499,1.2253 -18.78773,-7.4694 -5.19823,8.4119 4.50507,9.0011 2.02988,10.5799 8.46559,2.2855 2.35156,4.7835 -7.72301,5.7022 10.9657,5.8672 -10.07458,9.2368 -1.46046,16.4468 -2.72293,12.3943 1.98027,4.7835 -16.33716,4.0291 -8.83698,7.2575 -3.26741,14.9625 8.78742,13.4309 20.69381,4.972 3.63876,11.7578 0.59409,7.9407 -10.66872,8.6479 -11.1142,10.0377 0.91587,17.2955 -3.3417,6.8565 -9.50533,6.6451 -7.15363,5.9848 2.37625,10.8626 c 0,0 2.57731,8.7899 3.51792,10.8161 0.94062,2.0266 8.28919,11.9727 8.28919,11.9727 l -7.00205,2.3061 -1.03968,6.6212 9.05974,0.025 6.53491,4.8775 3.49024,7.4695 17.45102,14.2557 19.06005,6.4798 14.72827,0.8483 -0.51979,6.1499 -13.51533,4.2178 -13.83708,-1.2018 -16.53526,0.1885 -13.56481,4.8304 -13.81234,-7.2573 -4.03478,-10.1557 c 0,0 -3.53974,-11.1924 -5.32199,-11.6637 -1.78227,-0.4713 -8.34186,-5.0895 -8.34186,-5.0895 l -0.12381,11.6634 -8.31711,7.5403 -19.57995,-6.0793 c 0,0 -13.49056,-9.6137 -15.6936,-12.2291 -2.20301,-2.6156 -8.26764,-14.9625 -8.88646,-16.6121 -0.61883,-1.6494 -11.08946,-16.8711 -11.08946,-16.8711 l -11.26271,-10.6034 0.99009,-14.821 c 0,0 -7.57451,-17.9787 -7.72301,-19.6753 -0.14856,-1.6965 3.46539,-10.297 3.46539,-10.297 l -12.12913,-3.0868 -1.78217,-14.4206 6.46059,-8.5534 -17.79764,-3.2046 -7.57449,8.8597 -6.18838,-7.3515 6.85669,-18.8035 15.76788,-4.5949 8.0448,10.5801 0.69316,-11.8289 -1.38621,-17.1774 9.22075,-6.1016 -0.27231,-6.2915 -11.46072,-3.4635 2.02972,-8.6478 -4.80211,-8.6949 4.55454,-9.3546 -4.33177,-8.9775 2.82182,-12.7711 -6.85663,-7.0925 -4.45559,5.2546 -9.38149,2.097 -8.93605,-12.8418 -1.21281,-28.629 6.5843,-0.6599 -1.16334,-12.2056 c 0,0 -11.98063,-15.5515 -12.15387,-17.6723 -0.17328,-2.1206 -0.0496,-7.8936 -0.0496,-7.8936 l -6.08925,-11.8522 7.47544,-5.938 2.17839,-14.0671 1.83174,-26.2492 2.28645,-23.0984 7.3765,-13.9729 c 0,0 -8.06955,-7.1396 -7.4507,-8.7655 0.61882,-1.6258 6.65864,-15.64583 6.65864,-15.64583 l -16.08972,-41.73017 7.1043,-9.94364 -8.53992,-20.8062 4.55461,-17.43665 -1.28724,-22.52632 c 0,0 5.04968,-17.62516 4.08434,-19.43953 -0.96536,-1.81434 -7.45067,-8.93038 -6.63387,-10.76831 0.81685,-1.83794 5.718,-11.9229 5.718,-11.9229 l -5.22294,-31.12685 -6.33681,-8.27064 2.35152,-7.82295 3.0693,-29.62538 -6.43588,-29.97224 -7.87162,-29.64233 -2.00504,-8.4356 c 0,0 -21.18891,-8.69477 -22.40177,-10.29705 -1.21281,-1.60229 -6.16354,-10.01429 -6.16354,-10.01429 0,0 -23.98587,-3.48732 -25.1493,-5.72585 -1.16349,-2.23849 -31.06553,-10.27347 -31.06553,-10.27347 l -24.53048,-6.85686 -13.34205,-3.62872 -17.77291,-13.10107 -14.97581,-17.03611 2.22785,-10.10856 -11.63408,-7.65799 -15.62354,-13.1335 -2.50005,-13.03043 -10.0994,-3.53445 -37.27844,-49.78875 -7.20323,-8.60053 -9.97561,-5.79648 -13.960872,-17.93154 -19.282879,-9.49593 z"
       id="path279"
       sodipodi:nodetypes="cccccccccccccccccccccccccccccccccccccccccccccccccccccccccccccccccccccccccccccccscscccccsccccccccccccccccccccccccccccccscccccscccsccccccccccccccccccccccccccsccccccccccccccccccccccccccccccccccccccccccccccccccccccsccccccccccccccccsccccsscccscccccccccccccccccccccccccccscccccccsccccccssccccccccscscccccccccccccccc" /></g><g
     inkscape:groupmode="layer"
     id="layer2"
     inkscape:label="Layer 2"
     style="display:inline"><path
       style="display:inline;fill:#d4aa00;stroke-width:0.264583"
       d="M 101.0578,202.44964 87.970433,188.16868 80.422267,165.109 l 12.296056,-8.16053 -12.600467,-6.86228 9.496036,-15.45554 -15.035498,-10.75707 13.209289,-6.98592 0.18275,-17.80482 24.835697,-20.772249 2.19145,-18.175745 9.25271,-6.058572 33.17518,-11.931692 20.33138,-16.135605 4.01766,18.855781 10.71343,9.829731 30.67982,-13.60089 23.55748,-4.203909 19.0529,6.058569 23.67941,10.015212 4.3829,27.943656 -18.93125,18.42303 7.42624,34.373143 -8.33948,27.82002 -19.6009,33.81675 -6.02636,27.38724 -44.19327,-19.90674 -45.7759,10.38614 -27.75763,-14.40461 z"
       id="path755" /><path
       style="fill:#ff6600;stroke-width:0.264583"
       d="m 315.02397,54.199916 23.07058,-0.803695 27.51429,1.112803 30.436,-19.783121 22.27926,6.98591 23.49664,4.822143 7.12208,23.306992 14.48777,12.055321 14.06144,-11.560749 29.27942,16.753819 7.48734,13.600891 20.45306,-0.24729 19.47923,16.93929 -17.40945,29.05645 -42.30624,27.38725 -43.15835,10.63343 -54.66337,-21.63778 c 0,0 -56.67208,-16.75382 -59.59403,-21.45232 -2.92193,-4.6985 -42.61062,-22.56511 -42.61062,-22.56511 l 22.6445,-29.489205 z"
       id="path812" /><path
       style="fill:#d4aa00;stroke-width:0.264583"
       d="m 569.04384,124.86273 26.47939,2.28742 13.2093,-11.49892 22.58367,8.34599 32.32327,3.89479 25.32287,25.47078 26.90548,27.63453 2.31312,19.16489 -29.40134,31.65299 -11.32226,26.52171 -57.64589,7.48049 -76.51654,19.53583 -19.7834,-53.66167 29.64468,-27.32546 -21.24437,-33.07488 z"
       id="path814" /><path
       style="fill:#ff6600;stroke-width:0.264583"
       d="m 492.10145,384.02148 c 2.25229,-4.20385 35.30581,-32.8894 35.30581,-32.8894 l 16.92254,-33.44582 -19.90532,-18.85579 -12.90487,-43.3992 -8.40031,-30.10742 31.22729,-18.97943 -14.06144,-23.9252 -44.68016,22.68877 -22.40092,3.46204 -35.24522,-14.89918 -35.8538,24.48164 -3.22609,42.41003 15.33967,54.46539 -26.78356,37.83524 38.22772,44.88291 31.83612,-11.86985 37.25394,29.551 z"
       id="path816" /><path
       style="fill:#ff6600;stroke-width:0.264583"
       d="m 299.13633,146.56233 c 0,0 26.54024,24.66703 31.53171,25.3471 4.99147,0.68007 33.17542,3.95664 33.17542,3.95664 l 27.45348,8.09871 -32.87101,29.24193 1.21738,42.90463 4.50458,40.92631 -12.90489,51.00336 -46.44554,38.14426 -55.88077,-26.89262 -28.97527,-49.14868 29.0361,-43.21373 -19.47924,-23.92522 35.8538,4.88396 4.13932,-25.96535 17.65303,-26.7072 z"
       id="path818" /><path
       style="fill:#ff6600;stroke-width:0.264583"
       d="m 85.048496,214.56678 31.044804,16.32107 18.01827,-4.57483 19.35732,18.79396 29.76659,-18.9176 22.82699,6.67679 11.80915,33.69309 -23.00948,33.8786 21.67043,46.05756 -51.19369,22.31787 -52.95883,30.84928 -36.888425,-39.25713 -28.5492,6.3677 7.304585,-29.30377 -20.818287,-10.69523 2.861106,-34.18771 26.601073,-26.83084 22.644497,-46.61396 z"
       id="path820" /><path
       style="fill:#d4aa00;stroke-width:0.264583"
       d="m 21.071579,397.93156 13.331207,-20.03042 33.966748,0.80365 31.957786,32.51848 23.31415,10.07708 18.62684,-18.42307 39.62787,-17.74293 41.69766,-15.70286 30.92314,11.43709 30.31433,26.8927 -8.33948,43.95557 -38.95822,57.61834 15.64407,43.70834 L 216.95865,577.2778 177.69602,550.5706 155.23427,522.81245 116.2758,490.85034 96.97931,455.67348 56.560124,421.11485 Z"
       id="path822" /><path
       style="fill:#ff6600;stroke-width:0.264583"
       d="m 302.54516,411.40877 38.71463,-30.7875 18.87043,-4.88392 22.52284,27.20179 21.91401,22.99785 28.1837,-20.27772 16.31397,24.17252 37.67974,12.67356 5.66113,61.20405 -33.84484,34.49678 14.7311,47.0467 -39.2018,30.72563 -86.25591,-45.68663 -47.29795,44.69749 -47.41936,-23.80155 37.31476,-33.01306 -19.66174,-43.02829 34.8189,-42.78098 z"
       id="path824" /><path
       style="fill:#ff6600;stroke-width:0.264583"
       d="m 561.55674,304.11422 c 3.34777,-4.26572 121.56173,-25.77986 121.56173,-25.77986 l 26.84465,-4.7603 31.4103,12.36445 37.61891,-5.19308 23.37498,-28.6237 36.64511,8.84057 27.39263,21.51414 -13.63536,65.16063 -36.21902,43.02829 -68.72481,17.31023 -57.34174,-28.3146 -85.46459,14.71372 -41.39325,-33.8786 z"
       id="path826" /><path
       style="fill:#ff6600;stroke-width:0.264583"
       d="m 507.25863,419.28904 40.48001,-45.93392 45.16733,41.48273 74.14234,-3.21477 34.02759,8.71694 39.93229,21.51414 54.6631,-25.22347 41.94098,58.66932 -63.30699,72.27019 -61.42024,54.27991 -53.08047,-64.10968 -86.62143,-15.14644 -5.72193,-33.38399 -52.95884,-8.46963 z"
       id="path828" /><path
       style="fill:#d4aa00;stroke-width:0.264583"
       d="m 322.63297,629.60826 21.85318,-24.91436 27.08798,4.45122 23.92297,21.88506 42.48872,8.16057 42.0629,-38.26798 29.15777,46.73761 -17.47027,52.61073 -31.95805,98.11189 -41.08884,-42.5337 -42.9148,30.29286 -29.03609,-8.65508 -4.56541,-43.09012 9.06997,-34.99135 z"
       id="path830" /><path
       style="fill:#ff6600;stroke-width:0.264583"
       d="m 887.64942,298.11747 33.23627,-0.55639 42.42787,-0.37092 37.01034,7.41867 36.1582,24.97617 38.7149,19.59763 26.175,11.18981 -1.7045,33.01307 -27.4533,23.73977 -31.958,30.91111 -7.5482,19.16491 -24.2879,3.0911 -7.0005,34.68224 c 0,0 -49.61102,0.61825 -48.27173,-4.32752 1.33932,-4.94581 1.09575,-54.40357 1.09575,-54.40357 l -0.42609,-30.47836 -53.14156,-14.34277 -40.60169,-19.53583 c 0,0 19.60116,-16.50654 19.11401,-25.16164 -0.48718,-8.6551 8.46113,-58.60748 8.46113,-58.60748 z"
       id="path834" /><path
       style="fill:#d4aa00;stroke-width:0.264583"
       d="m 818.19413,418.91812 28.2448,-16.56834 70.91624,27.01631 10.10463,32.58032 -5.66114,38.57704 18.07909,29.55105 47.96737,-2.16379 10.53092,44.26471 -19.05291,28.00549 4.86981,31.15841 -35.1233,20.89592 -13.75728,21.57593 -33.29709,9.21152 -32.93184,-34.2495 -16.0704,-35.42413 -16.61813,-49.58144 25.50559,-53.41442 8.40031,-41.29725 z"
       id="path836" /><path
       style="fill:#ff6600;stroke-width:0.264583"
       d="m 482.72707,540.27514 32.50579,-14.52822 28.24479,9.89158 25.1401,20.21583 42.97588,9.14972 36.40153,14.7755 32.3841,30.10744 20.57498,24.11068 0.42606,35.115 -46.08031,43.3992 -60.14199,42.90465 -41.57575,-29.42735 -49.42805,4.513 36.58401,-40.74086 0.97407,-34.92955 -16.92254,-27.82001 c 0,0 -21.60987,-28.43822 -22.58367,-33.50763 -0.97383,-5.06942 -19.479,-53.22898 -19.479,-53.22898 z"
       id="path838" /><path
       style="fill:#ff6600;stroke-width:0.264583"
       d="m 720.06798,620.5204 36.64511,-25.84169 16.67896,-27.75815 17.3486,-12.48807 21.67069,-22.99793 17.16588,-17.74298 5.53945,18.91763 -13.93976,25.40891 v 37.52615 l 13.20927,37.09328 16.61813,40.1845 21.18352,22.37962 -30.86229,18.42302 -39.14071,11.12805 -16.00957,33.81672 -0.66966,40.18446 -30.1924,27.38723 -41.57601,-30.78744 -18.566,-44.69749 -15.21799,-22.56512 24.04465,-16.25923 20.75743,-29.7365 3.40884,-32.02392 z"
       id="path840" /><path
       style="fill:#ff6600;stroke-width:0.264583"
       d="m 352.03431,802.84655 28.36646,9.89158 29.82743,-24.11071 23.25306,27.5727 30.5579,9.5825 19.78366,-10.63342 8.94802,-38.94802 21.18355,-17.74298 30.49706,5.68764 28.79254,36.9697 -17.34835,48.22134 -31.53199,51.74523 -50.15881,43.09006 -64.88988,15.45556 -41.75823,-10.57156 c 0,0 -10.83562,-30.7875 -10.34844,-35.48599 0.48715,-4.6985 2.37419,-45.99578 2.37419,-45.99578 z"
       id="path842" /><path
       style="fill:#ff6600;stroke-width:0.264583"
       d="m 596.01041,787.39099 33.54067,-24.04885 24.28796,-10.57158 21.12269,18.48485 21.00077,33.56943 25.07954,31.22028 11.9308,29.73649 -19.41814,34.31127 -35.67104,32.14757 -40.29752,-3.89478 -32.81019,-8.96421 -18.8704,26.15078 -30.37517,-20.52492 -3.28719,-45.93394 31.53172,-29.55105 z"
       id="path844" /><path
       style="fill:#d4aa00;stroke-width:0.264583"
       d="m 359.0345,981.26551 33.66233,-1.23642 37.49751,8.77872 41.14967,-20.3395 18.01799,33.19859 -38.10606,44.0174 -21.54877,63.4296 -8.09591,41.7918 -28.67086,22.5651 -9.92211,-11.3135 3.22609,-24.667 -8.70471,-20.3395 -15.82682,-7.7278 -6.45245,-24.9144 -0.60857,-34.9913 11.20035,-31.3439 z"
       id="path846" /><path
       style="fill:#ff6600;stroke-width:0.264583"
       d="m 491.06655,955.65462 22.03569,-19.96859 25.56643,6.12043 19.66174,20.52494 33.84508,10.38614 22.5834,6.24406 0.85241,28.1909 -18.01826,23.0597 -35.06248,-0.5564 -34.02758,9.8298 -3.95658,16.1974 -2.67862,20.7723 -22.52257,1.731 -12.35715,12.7354 -9.98295,24.1724 -17.65302,-6.5531 -0.36523,-31.7148 19.23566,-27.2018 23.74021,-24.7907 13.39178,-19.474 z"
       id="path848" /><path
       style="display:inline;fill:#ff6600;stroke-width:0.264583"
       d="m 427.82013,1356.4482 -24.28795,-31.5912 -10.16569,-37.0933 -0.60857,-44.1411 1.82594,-44.4502 32.14055,-23.9252 25.62725,-24.5434 2.61753,-17.5575 18.38351,2.8438 15.27884,7.7278 -6.75661,22.8742 -17.34862,14.8992 -9.61795,30.8493 7.66982,22.9978 18.07911,10.7571 -11.99166,17.9284 -11.2614,21.0196 -10.04404,25.6562 1.46098,27.3873 z"
       id="path850" /></g><g
     inkscape:groupmode="layer"
     id="layer3"
     inkscape:label="Layer 3"
     style="display:inline"><path
       style="fill:#784421;stroke-width:0.264583"
       id="path1307"
       d="m 137.55099,247.31544 c 2.01922,-10.22154 5.49612,-19.97662 9.44995,-29.58637 3.55665,-7.92585 7.24681,-15.82955 11.71035,-23.29397 0.7806,-1.25327 0.40009,-0.61177 1.13973,-1.92553 5.12111,-9.28839 -8.01465,-16.53074 -13.13577,-7.24235 v 0 c -0.37508,0.72782 -0.10233,0.21942 -0.88758,1.48593 -4.8257,8.11262 -8.87967,16.66249 -12.70458,25.28335 -4.15402,10.15529 -7.88693,20.45573 -10.02108,31.25067 -2.84842,10.21698 11.60056,14.24524 14.44898,4.02827 z" /><path
       style="fill:#784421;stroke-width:0.264583"
       id="path1313"
       d="m 254.82915,104.32899 c 12.5449,-1.37489 25.10933,-2.44958 37.7132,-3.08225 13.89743,-0.47494 27.8062,-0.13913 41.69326,0.47019 2.22877,0.17436 4.43931,0.15587 6.66252,-0.017 10.55127,-1.08195 9.02116,-16.003708 -1.53014,-14.92175 v 0 c -1.43414,0.469294 -3.05197,-0.510247 -4.47564,-0.04684 -14.35793,-0.628481 -28.73845,-0.969782 -43.10668,-0.465476 -12.76882,0.648753 -25.50054,1.712656 -38.20934,3.115561 -10.56954,0.885876 -9.31672,15.833465 1.25282,14.947595 z" /><path
       style="fill:#784421;stroke-width:0.264583"
       id="path1315"
       d="m 234.64367,173.78616 c 5.43711,9.78046 11.54834,19.09706 18.15017,28.12541 7.97205,10.62031 17.67152,19.7166 27.00721,29.09669 3.42392,3.44436 6.81173,6.92591 10.31965,10.28543 0.30853,0.2977 0.62582,0.586 0.94022,0.87738 7.78122,7.20783 17.97463,-3.79647 10.19342,-11.00429 v 0 c -0.25429,-0.23548 -0.51146,-0.46785 -0.76091,-0.70853 -3.4221,-3.27444 -6.71915,-6.67598 -10.06084,-10.03161 -8.80374,-8.84494 -17.9751,-17.39952 -25.53695,-27.37769 -6.46947,-8.81961 -12.29975,-17.84985 -17.64445,-27.38994 -5.74676,-8.91486 -18.35428,-0.78771 -12.60752,8.12715 z" /><path
       style="fill:#784421;stroke-width:0.264583"
       id="path1321"
       d="m 125.09606,345.95408 c -0.3839,8.9676 1.37428,17.79937 3.47326,26.46429 2.77942,10.70581 6.96341,20.94301 11.77565,30.87558 3.18528,6.51576 7.04239,12.65581 11.61056,18.28313 2.19427,2.57945 4.57574,4.98731 7.38811,6.87821 2.36284,0.0887 4.72567,0.1773 7.0885,0.26596 9.68192,-4.33133 3.5565,-18.02363 -6.12542,-13.69232 v 0 c 2.20384,0.15978 4.40768,0.31956 6.61153,0.47935 0.20284,0.16375 0.39319,0.34432 0.60854,0.49122 0.43704,0.29816 -0.8042,-0.68821 -1.18993,-1.05032 -0.96558,-0.90638 -1.89773,-1.84943 -2.75979,-2.85575 -3.86345,-4.70164 -7.04474,-9.89539 -9.73835,-15.35073 -4.36428,-8.96847 -8.15612,-18.2146 -10.69716,-27.88099 -1.77314,-7.20212 -3.3078,-14.54431 -3.07259,-22.00659 0.63713,-10.58746 -14.33579,-11.48847 -14.97291,-0.90104 z" /><path
       style="fill:#784421;stroke-width:0.264583"
       id="path1325"
       d="m 248.19062,409.78653 c 4.71142,-7.6196 9.03281,-15.47188 13.57932,-23.19073 4.17695,-7.00881 8.47314,-13.94545 12.67563,-20.93886 1.21819,-2.09198 2.54185,-4.11493 3.91573,-6.10648 0.37409,-0.56089 0.80639,-1.07709 1.24444,-1.588 0.81378,-0.85476 1.39536,-1.87444 1.85166,-2.95455 0.19245,-0.47172 0.30567,-0.96615 0.41373,-1.46185 1.95849,-10.42421 -12.78359,-13.19392 -14.74206,-2.76971 v 0 c 0.089,-0.39986 0.17891,-0.79968 0.33819,-1.17917 0.15581,-0.35642 1.6464,-2.64972 0.74192,-1.38761 -0.77515,0.90692 -1.52482,1.83608 -2.19549,2.82409 -1.55166,2.24991 -3.04423,4.53765 -4.42545,6.89739 -4.22493,7.03139 -8.54582,14.00469 -12.74331,21.05264 -4.42242,7.50995 -8.63938,15.14109 -13.194,22.57144 -5.82049,8.86688 6.71919,17.0983 12.53969,8.2314 z" /><path
       style="fill:#784421;stroke-width:0.264583"
       id="path1327"
       d="m 248.18536,480.55768 c 5.13323,-0.73155 10.3203,-1.0558 15.50304,-1.00569 4.16222,-0.0777 7.83754,1.12366 11.46763,3.01826 3.93216,2.236 7.4127,5.14758 10.79759,8.12332 2.45729,2.16429 4.74303,4.51062 7.02514,6.85567 1.79191,1.77247 3.34653,3.74722 4.73109,5.84751 0.75115,1.1507 1.4931,2.31288 2.0724,3.56163 0.19288,0.59002 0.4925,1.13067 0.78481,1.67558 5.45968,9.09349 18.31983,1.37234 12.86015,-7.72117 v 0 c 1.04323,1.99733 0.22289,0.524 -0.10448,-0.40847 -0.90604,-1.88097 -1.96202,-3.68218 -3.12449,-5.41663 -1.91321,-2.85766 -4.02699,-5.5704 -6.46999,-8.00023 -2.55672,-2.62684 -5.12517,-5.24708 -7.88077,-7.66829 -4.33187,-3.79555 -8.82045,-7.4617 -13.90129,-10.22403 -6.01395,-2.99897 -11.37023,-4.62428 -18.15535,-4.6428 -5.992,-0.0274 -11.9883,0.30972 -17.92103,1.18512 -10.47946,1.63735 -8.16391,16.45754 2.31555,14.82022 z" /><path
       style="fill:#784421;stroke-width:0.264583"
       id="path1329"
       d="m 397.73952,651.73568 c 5.21057,-5.63046 8.57038,-12.60843 11.6254,-19.56371 2.83321,-6.71066 4.8709,-13.69936 6.42411,-20.80419 0.98647,-4.81894 1.62475,-9.69748 2.00842,-14.5987 0.25339,-3.15389 0.11922,-6.31169 0,-9.46627 -0.023,-1.793 -0.0616,-3.58552 -0.16031,-5.37606 0.0722,-0.69538 -0.0644,-1.78642 -0.21095,-2.60398 -1.1022,-5.10842 -2.29092,-1.0664 -13.70664,-2.79958 -6.27221,8.55331 5.82401,17.42358 12.09622,8.87026 v 0 c -9.05226,-1.92088 -12.15879,1.50119 -13.11685,-3.22334 -0.19843,-1.25926 0.0733,-0.35547 -0.0385,0.59148 0.0963,1.70362 0.11616,3.40955 0.14806,5.11529 0.10031,2.5777 0.2312,5.15779 0.033,7.73607 -0.32121,4.21908 -0.87649,8.41688 -1.71038,12.56697 -1.3276,6.14109 -3.08366,12.1783 -5.5109,17.98381 -2.29108,5.27082 -4.73731,10.62077 -8.52789,15.0055 -7.47159,7.52829 3.175,18.09475 10.64662,10.56645 z" /><path
       style="fill:#784421;stroke-width:0.264583"
       id="path1331"
       d="m 433.10942,435.56711 c 2.39511,-5.7403 4.07193,-11.73475 5.55085,-17.76463 1.47815,-5.97998 2.19284,-12.09339 2.72037,-18.21744 0.47133,-4.57811 0.65812,-9.17019 0.62679,-13.77008 -0.01,-3.74684 -0.24836,-7.4867 -0.7226,-11.20227 -0.33113,-2.70653 -0.77221,-5.39771 -1.24346,-8.08284 -0.35965,-2.06959 -0.86154,-4.11006 -1.3331,-6.156 -0.11475,-0.49708 -0.19246,-1.00116 -0.29332,-1.50106 -2.25674,-10.36376 -16.91328,-7.17228 -14.65654,3.19148 v 0 c -0.11703,-0.62413 0.27588,1.56837 0.33311,1.67862 0.41243,1.78938 0.8564,3.57291 1.17602,5.38202 0.43323,2.4642 0.83957,4.93393 1.14202,7.41813 0.4128,3.11086 0.58142,6.24715 0.5983,9.3849 0.0346,4.13409 -0.14573,8.25939 -0.57221,12.37358 -0.45858,5.35692 -1.0536,10.70795 -2.34654,15.9399 -1.27085,5.22119 -2.70629,10.41353 -4.75586,15.39127 -4.19626,9.74121 9.57988,15.67563 13.77617,5.93442 z" /><path
       style="fill:#784421;stroke-width:0.264583"
       id="path1333"
       d="m 346.22348,300.18627 c 3.85897,-1.63806 7.71308,-3.27258 11.68757,-4.61118 2.88864,-0.95536 5.80816,-1.83902 8.81684,-2.31826 3.05028,-0.37126 6.10182,-0.73305 9.15393,-1.08921 2.30449,-0.24635 4.60054,-0.66685 6.91811,-0.77509 1.75051,-0.11518 3.4998,0.0692 5.2415,0.22518 1.85047,0.13772 3.69149,0.3641 5.52905,0.6181 1.36925,0.25439 2.77564,0.23257 4.14851,0.44466 0.82182,0.15602 1.63737,0.34189 2.4606,0.49257 0.54507,0.12121 1.09712,0.15661 1.65288,0.21254 10.59344,0.52814 11.34033,-14.45326 0.74689,-14.9814 v 0 c 1.52276,0.1891 0.56602,0.0802 0.28472,0.0111 -1.08487,-0.19527 -2.15339,-0.4766 -3.24872,-0.61439 -1.33069,-0.15896 -2.66927,-0.2363 -3.99661,-0.42453 -2.07486,-0.2853 -4.15385,-0.53972 -6.24271,-0.6991 -2.47555,-0.22059 -4.96144,-0.42887 -7.44797,-0.2593 -2.60609,0.16656 -5.19506,0.52213 -7.78486,0.85082 -3.29612,0.38468 -6.5932,0.76489 -9.88398,1.19264 -3.79662,0.65122 -7.51142,1.65986 -11.15701,2.90544 -4.31858,1.46754 -8.52506,3.20821 -12.71719,5.00235 -9.77017,4.1284 -3.93174,17.94552 5.83845,13.81712 z" /><path
       style="fill:#784421;stroke-width:0.264583"
       id="path1335"
       d="m 447.50775,169.34076 c 2.70386,2.33601 4.12732,5.65791 5.45267,8.8871 2.05073,5.14234 3.00254,10.59403 3.63238,16.06551 0.45797,4.68825 0.34441,9.40049 0.0333,14.09228 -0.24398,3.54012 -0.91086,7.0256 -1.62174,10.49535 -0.50906,1.82044 -0.6554,3.71605 -1.01769,5.56135 0.0124,-0.078 0.0246,-0.15609 0.037,-0.23413 -2.2624,10.3625 12.3924,13.56204 14.6548,3.19953 v 0 c 0.0433,-0.2199 0.0866,-0.4398 0.12993,-0.6597 0.24167,-1.63017 0.49192,-3.25572 0.89115,-4.85857 0.84679,-4.13927 1.61118,-8.30204 1.89454,-12.5248 0.36201,-5.60116 0.47364,-11.22656 -0.10358,-16.82001 -0.81883,-6.86726 -2.07949,-13.69659 -4.70382,-20.13354 -2.66996,-6.24116 -5.93687,-12.29059 -11.80782,-16.07738 -9.19734,-5.28288 -16.66846,7.72414 -7.47112,13.00701 z" /><path
       style="fill:#784421;stroke-width:0.264583"
       id="path1337"
       d="m 524.1064,142.0467 c 4.14552,0.95422 8.11133,2.49686 11.93294,4.34242 3.90176,1.96766 7.09097,4.86725 10.05155,8.02266 2.67925,3.01271 5.09439,6.2476 7.48562,9.48995 1.37099,1.86149 2.68862,3.76108 4.08998,5.60001 0.29832,0.34786 1.51972,2.04208 1.05598,1.41023 5.50698,9.06494 18.32673,1.2769 12.81975,-7.78805 v 0 c -0.60179,-0.9415 -1.25341,-1.84597 -1.94998,-2.72033 -1.35493,-1.77356 -2.61556,-3.61603 -3.94589,-5.408 -2.75323,-3.72945 -5.54027,-7.44594 -8.65333,-10.88642 -4.25159,-4.47457 -8.90651,-8.50688 -14.49062,-11.25626 -4.811,-2.2775 -9.77627,-4.22949 -14.98108,-5.41232 -10.32806,-2.41472 -13.74299,12.19139 -3.41492,14.60611 z" /><path
       style="fill:#784421;stroke-width:0.264583"
       id="path1339"
       d="m 617.34525,258.41093 c 2.82093,3.47276 4.0777,7.76577 5.15466,12.02305 1.31318,6.05086 1.85925,12.22687 2.03541,18.40524 0.0283,4.27884 -0.10686,8.55662 -0.17475,12.83467 0.0314,1.54803 -0.26197,3.05903 -0.50313,4.57801 -0.30811,1.81438 -0.20019,3.65315 -0.053,5.47624 0.0127,0.14105 0.0274,0.28194 0.0382,0.42315 0.007,0.0898 -0.0298,-0.17976 -0.0212,-0.2694 0.0506,-0.52078 0.0519,-1.05117 0.17354,-1.56004 0.13324,-0.5575 0.39047,-1.07783 0.58573,-1.61676 -4.84338,9.4362 8.50141,16.28576 13.34479,6.84956 v 0 c 0.61632,-1.64206 1.11133,-3.27726 0.82915,-5.04688 -0.0648,-0.782 -0.15811,-1.24166 -0.0814,-1.9128 0.34858,-2.21523 0.70485,-4.43101 0.68537,-6.68317 0.0714,-4.50635 0.21805,-9.01255 0.16997,-13.51983 -0.22587,-7.29674 -0.88641,-14.5918 -2.50933,-21.72452 -1.7952,-6.79497 -4.15301,-13.49489 -8.98557,-18.78061 -7.44167,-7.5579 -18.13015,2.96619 -10.68851,10.52409 z" /><path
       style="fill:#784421;stroke-width:0.264583"
       id="path1341"
       d="m 843.51084,330.86026 c 4.73929,-0.86262 9.55982,-1.03732 14.36425,-1.12461 5.31038,-0.13562 10.61588,0.0748 15.78528,1.34943 3.64329,0.98097 6.87568,2.916 9.9463,5.05026 2.44972,1.75459 4.44405,3.99748 6.22731,6.40382 1.68384,2.28835 2.87602,4.87492 4.13925,7.40568 0.84368,1.78173 1.75614,3.52666 2.70552,5.2536 0.5737,1.07373 -0.24865,-0.44649 -0.24233,-0.59505 0.0874,-2.0533 -0.51014,-4.49363 0.74605,-6.12018 1.52638,-1.97639 4.43195,-2.30251 6.64792,-3.45377 -10.57085,-0.87019 -11.80148,14.07925 -1.23063,14.94944 v 0 c 2.40501,-1.1357 5.51698,-1.36002 7.215,-3.4071 2.25753,-2.72155 1.37065,-6.07091 0.008,-8.60062 -0.854,-1.55284 -1.67286,-3.1223 -2.42893,-4.72604 -1.66799,-3.34082 -3.30615,-6.71722 -5.56472,-9.71238 -2.78886,-3.6826 -5.91529,-7.09425 -9.72312,-9.75707 -4.62605,-3.15714 -9.52468,-5.91849 -15.00552,-7.29077 -6.41112,-1.46513 -12.93091,-1.98192 -19.50826,-1.7466 -5.58956,0.10888 -11.19402,0.34465 -16.70627,1.3534 -10.44294,1.85605 -7.81809,16.62459 2.62485,14.76856 z" /><path
       style="fill:#784421;stroke-width:0.264583"
       id="path1343"
       d="m 803.39564,378.48603 c 1.77101,5.2201 3.63712,10.40852 5.69873,15.52107 2.23004,5.53476 5.45523,10.54063 9.10714,15.22706 2.87364,3.47546 6.17358,6.56182 9.61374,9.46499 2.32445,1.89918 4.65527,3.7896 7.03575,5.61816 2.21128,1.689 4.6455,3.03813 7.07393,4.38103 0.96361,0.66603 2.18387,1.03878 3.04093,1.85698 0.235,0.39552 -0.63256,-0.67027 -0.9145,-1.03384 5.68917,8.9517 18.3488,0.90599 12.65962,-8.04571 v 0 c -0.70046,-0.9733 -1.41428,-1.93188 -2.3948,-2.64954 -1.60681,-1.24743 -3.34465,-2.28748 -5.13289,-3.25482 -1.77302,-0.98026 -3.56833,-1.93593 -5.19633,-3.15093 -2.20568,-1.69325 -4.36298,-3.44654 -6.51878,-5.20268 -2.65943,-2.22491 -5.20573,-4.59791 -7.46115,-7.23726 -2.81225,-3.55976 -5.29148,-7.37264 -7.00561,-11.59425 -1.93365,-4.77179 -3.66045,-9.6238 -5.32677,-14.49486 -3.24888,-10.09679 -17.52788,-5.50219 -14.27901,4.5946 z" /><path
       style="fill:#784421;stroke-width:0.264583"
       id="path1345"
       d="m 916.67144,491.90211 c 3.9402,-2.94929 8.07601,-5.62319 12.32889,-8.09567 3.96203,-2.23022 8.21193,-3.82325 12.68754,-4.59999 2.57604,-0.40381 5.17588,-0.40127 7.7303,0.11147 2.83343,0.65344 5.68624,1.20057 8.55345,1.68087 1.82428,0.27128 3.61117,0.72744 5.38121,1.23653 1.50032,0.43294 2.99426,0.88503 4.50701,1.27339 1.19267,0.25635 0.4962,0.13329 2.099,0.30993 10.5968,0.4558 11.24137,-14.53036 0.64457,-14.98616 v 0 c 0.32174,0.0441 0.64344,0.0881 0.96518,0.13213 0.003,0.004 0.007,0.008 0.01,0.0124 -1.37634,-0.35065 -2.73122,-0.77528 -4.09747,-1.16237 -2.31405,-0.66006 -4.65098,-1.24576 -7.03234,-1.60983 -2.80125,-0.46882 -5.58352,-1.02127 -8.35451,-1.64621 -4.35107,-0.74795 -8.74821,-0.87403 -13.11597,-0.10531 -6.16792,1.17203 -12.07739,3.25443 -17.53659,6.39692 -4.788,2.80164 -9.45943,5.80479 -13.89292,9.14503 -8.41949,6.45075 0.70326,18.35769 9.12275,11.90693 z" /><path
       style="fill:#784421;stroke-width:0.264583"
       id="path1347"
       d="m 809.91767,491.40107 c 5.14215,-0.48419 10.27219,-0.28165 15.38756,0.34086 4.47508,0.6431 8.98276,1.43976 13.00136,3.58979 2.53722,1.53701 4.61822,3.67593 6.64483,5.81329 1.88253,1.95733 3.37174,4.23074 4.82084,6.51404 1.43986,2.40049 2.83326,4.82809 4.28662,7.22072 1.32979,2.13077 2.73113,4.21444 4.01365,6.3745 1.0397,1.76755 2.0856,3.53121 3.08414,5.32244 0.64193,0.63703 1.48177,3.79195 0.68133,0.64987 0.047,-0.74965 0.094,-1.49929 0.14094,-2.24894 -2.70425,10.25607 11.80002,14.08047 14.50427,3.8244 v 0 c 0.10009,-0.95107 0.20016,-1.90212 0.30025,-2.85319 -0.45656,-2.41583 -1.17557,-4.60711 -2.52756,-6.68041 -1.06762,-1.91225 -2.1808,-3.79796 -3.29287,-5.6846 -1.31009,-2.19776 -2.71611,-4.33319 -4.08549,-6.49396 -1.50789,-2.4801 -2.94201,-5.00343 -4.44997,-7.48332 -1.97554,-3.09821 -4.04982,-6.14783 -6.61003,-8.8021 -3.21128,-3.36481 -6.59861,-6.60816 -10.7209,-8.84791 -5.67229,-2.80032 -11.7385,-4.36761 -18.02227,-5.10995 -5.99686,-0.69818 -12.01444,-0.97266 -18.04083,-0.41947 -10.58817,0.62519 -9.70402,15.59912 0.88413,14.97394 z" /><path
       style="fill:#784421;stroke-width:0.264583"
       id="path1349"
       d="m 822.46154,638.56544 c 5.32286,-1.16404 10.60241,-2.51926 15.84672,-3.99481 6.73637,-1.98038 13.282,-4.54539 19.63764,-7.51803 5.07312,-2.45983 9.67994,-5.71588 14.1924,-9.06423 1.83989,-1.41288 3.72936,-2.76138 5.56091,-4.18484 1.47344,-1.05396 2.67089,-2.3105 3.66792,-3.82024 5.19885,-9.24509 -7.87569,-16.59741 -13.07454,-7.35232 v 0 c 0.86029,-1.25285 2.23745,-2.39178 0.17126,-0.64725 -1.72442,1.35925 -3.53332,2.61133 -5.26611,3.96029 -3.71057,2.75547 -7.47141,5.47735 -11.62931,7.53184 -5.60128,2.64477 -11.39139,4.88492 -17.32925,6.65723 -4.8505,1.36962 -9.73611,2.61636 -14.65638,3.71118 -10.40945,2.0356 -7.53071,16.75675 2.87874,14.72118 z" /><path
       style="fill:#784421;stroke-width:0.264583"
       id="path1353"
       d="m 632.37395,583.62865 c 0.81756,-7.07594 1.30651,-14.18436 1.94686,-21.27747 0.54673,-6.47174 1.42838,-12.89791 2.82006,-19.24127 0.91945,-4.09141 2.18009,-8.09204 3.54248,-12.05405 0.97147,-2.86512 2.11153,-5.66681 3.25895,-8.46457 0.43791,-1.25153 1.29379,-2.24925 2.07645,-3.29711 0.11253,-0.14827 0.22154,-0.29927 0.33756,-0.44481 0.86473,-1.08474 -2.09371,2.47509 -3.46964,2.29822 -3.14968,-0.40487 -5.80795,-2.57006 -8.71191,-3.85506 4.25939,9.71378 17.99674,3.69009 13.73735,-6.02369 v 0 c -7.26001,-3.68062 -8.88902,-7.61457 -13.91664,-0.94353 -1.53042,2.05378 -3.03088,4.15277 -3.93147,6.57447 -1.25798,3.06774 -2.5011,6.14252 -3.56724,9.28365 -1.54802,4.51202 -2.9718,9.07042 -4.0114,13.73021 -1.50932,6.95592 -2.5123,13.99466 -3.10388,21.08962 -0.62939,6.97976 -1.11141,13.97447 -1.91228,20.93759 -1.19343,10.53923 13.71129,12.22703 14.90475,1.6878 z" /><path
       style="fill:#784421;stroke-width:0.264583"
       id="path1355"
       d="m 672.06722,672.16257 c 2.57154,4.54134 5.04063,9.13895 7.52369,13.72886 2.6702,4.9512 5.50331,9.80691 8.69876,14.43757 2.61659,3.71253 5.76122,6.9917 8.93635,10.22139 2.62861,2.74023 5.57067,5.13421 8.63494,7.36428 2.53532,1.71063 5.09966,3.38045 7.6725,5.03454 1.91709,1.27148 3.99502,2.25504 6.05136,3.27184 -0.81214,-0.39434 -0.36248,-0.131 -1.29934,-0.86924 7.27702,7.71655 18.18987,-2.57471 10.91284,-10.29123 v 0 c -1.89775,-1.73252 -0.90064,-0.97756 -2.97262,-2.28941 -1.5535,-0.76613 -3.13592,-1.4841 -4.5852,-2.4424 -2.33865,-1.50087 -4.66222,-3.02681 -6.97886,-4.56107 -2.39951,-1.72794 -4.6941,-3.59495 -6.74193,-5.73609 -2.57521,-2.61646 -5.15358,-5.24867 -7.29768,-8.24153 -2.89862,-4.16894 -5.4147,-8.57655 -7.83799,-13.036 -2.50918,-4.63806 -5.00454,-9.28377 -7.60272,-13.873 -5.1488,-9.27306 -18.26289,-1.99157 -13.1141,7.28149 z" /><path
       style="fill:#784421;stroke-width:0.264583"
       id="path1357"
       d="m 701.05716,833.6626 c 1.75229,-3.91242 4.06517,-7.46803 6.61792,-10.89359 2.88369,-3.80997 6.00636,-7.42566 9.27132,-10.91107 2.58103,-2.62178 5.06912,-5.33114 7.54605,-8.05063 2.6144,-2.80379 5.15188,-5.67775 7.74985,-8.49646 1.27567,-1.42082 2.75926,-2.6161 4.30088,-3.7315 0.76409,-0.51649 1.53766,-1.07035 2.41004,-1.39351 -0.28882,0.10779 -0.57764,0.21558 -0.86646,0.32337 10.30595,-2.50753 6.75976,-17.08234 -3.54618,-14.57481 v 0 c -0.52057,0.16418 -1.04111,0.32835 -1.56168,0.49253 -1.85621,0.8287 -3.63299,1.82075 -5.27092,3.03056 -2.3278,1.7049 -4.5575,3.54348 -6.49761,5.68989 -2.6161,2.84078 -5.17509,5.73371 -7.80762,8.55951 -2.43141,2.66959 -4.87502,5.32778 -7.40846,7.9016 -3.65133,3.90503 -7.14568,7.9543 -10.36696,12.22451 -3.03625,4.10925 -5.81911,8.37031 -7.94253,13.03396 -4.80523,9.45568 8.56713,16.25129 13.37236,6.79564 z" /><path
       style="fill:#784421;stroke-width:0.264583"
       id="path1359"
       d="m 752.41691,552.92291 c 2.67317,0.49935 4.74867,2.23949 6.71841,3.99426 3.26813,3.04919 5.85298,6.7121 8.25958,10.45276 2.03631,3.23908 3.89554,6.58164 5.58935,10.01104 1.25582,2.55759 2.32169,5.20094 3.22387,7.90207 0.43828,1.45447 0.96908,2.88028 1.3749,4.34443 0.0799,0.45564 0.0353,0.19958 -0.14094,-0.76689 0.43429,10.59772 15.42171,9.98352 14.9874,-0.61421 v 0 c -0.23662,-2.12786 -0.0601,-1.24431 -0.40457,-2.67253 -0.48234,-1.70593 -1.06924,-3.37875 -1.59862,-5.07031 -1.12831,-3.34026 -2.4385,-6.61649 -4.00036,-9.77996 -1.95374,-3.93559 -4.08229,-7.77999 -6.43242,-11.49456 -3.19738,-4.93072 -6.67525,-9.71637 -11.06265,-13.67176 -4.78536,-4.04876 -10.06033,-7.34774 -16.51395,-7.63434 -10.60659,0 -10.60659,15 0,15 z" /><path
       style="fill:#784421;stroke-width:0.264583"
       id="path1361"
       d="m 488.57521,366.03262 c 2.82586,6.00962 5.65827,12.016 8.45079,18.04122 2.72466,6.06399 5.75032,11.97425 9.76696,17.28428 3.02668,3.71827 6.81829,6.67226 10.58064,9.59758 2.27433,1.75138 4.43608,3.64122 6.60032,5.52505 1.32985,1.27675 2.82493,2.36236 4.21114,3.57169 -0.39527,-0.19912 -0.61156,-0.58438 -0.84826,-0.93681 4.14295,9.76403 17.95135,3.90501 13.80839,-5.85901 v 0 c -0.84412,-1.7209 -1.71166,-3.35479 -3.21736,-4.60939 -1.37043,-1.15908 -2.79789,-2.2497 -4.1067,-3.48162 -2.37347,-2.06521 -4.74774,-4.13269 -7.24178,-6.05277 -2.75526,-2.14117 -5.57408,-4.25632 -7.88797,-6.88861 -3.43008,-4.36325 -5.69722,-9.4669 -8.05603,-14.45797 -2.84676,-6.14212 -5.7322,-12.26606 -8.6179,-18.38992 -4.7067,-9.5051 -18.14894,-2.84882 -13.44224,6.65628 z" /><path
       style="fill:#784421;stroke-width:0.264583"
       id="path1367"
       d="m 492.18863,645.64656 c 3.55264,-5.09963 7.84981,-9.58257 12.46108,-13.72293 4.3756,-3.80368 9.48727,-6.48753 14.78124,-8.75287 2.10571,-0.83214 4.26286,-1.58858 6.50361,-1.95815 0.67353,-0.10118 1.35372,-0.13497 2.03134,-0.20053 1.64703,-0.19907 3.15061,-0.82047 4.53991,-1.71384 0.74784,-0.50919 1.38665,-1.14186 1.96212,-1.8347 6.55648,-8.33742 -5.23441,-17.60969 -11.79089,-9.27227 v 0 c 0.3846,-0.46014 0.79089,-0.90315 1.29863,-1.23145 0.6436,-0.39092 1.34054,-0.76348 2.10325,-0.82857 1.34752,-0.0692 -2.73754,0.1592 -2.76463,0.31197 -3.36952,0.61638 -6.64885,1.63201 -9.81155,2.94868 -6.79558,2.93661 -13.3174,6.48012 -18.90895,11.40166 -5.43327,4.93384 -10.52893,10.2362 -14.72001,16.28884 -6.05578,8.70791 6.25906,17.27205 12.31485,8.56416 z" /><path
       style="fill:#784421;stroke-width:0.264583"
       id="path1369"
       d="m 381.3416,770.77058 c 3.16436,2.83671 5.66936,6.2488 7.96255,9.79927 2.6506,4.2672 4.59071,8.91561 6.36257,13.60048 1.53112,4.20526 2.66277,8.53792 3.54862,12.92032 0.66569,3.76719 1.21677,7.55595 1.6414,11.35785 0.23418,2.39244 0.38396,4.79182 0.57949,7.18741 0.0653,0.72638 0.13075,1.45272 0.20306,2.17844 0.0164,0.16386 -0.0296,0.6359 0.0495,0.49149 0.0811,-0.14787 -0.0636,-0.33681 -0.0426,-0.50416 0.0964,-0.76814 0.2622,-1.52598 0.3933,-2.28899 -3.63969,9.96257 10.44953,15.10985 14.08919,5.14728 v 0 c 0.1719,-0.87466 0.4046,-1.73955 0.51568,-2.624 0.15049,-1.19841 -0.26017,-2.42933 -0.25826,-3.62485 -0.20953,-2.54606 -0.36351,-5.0968 -0.62333,-7.63868 -0.47985,-4.24304 -1.08625,-8.47352 -1.8492,-12.67523 -1.06003,-5.17305 -2.39552,-10.29039 -4.22344,-15.25066 -2.16316,-5.67976 -4.55404,-11.30049 -7.8109,-16.45391 -3.00276,-4.59343 -6.29745,-8.99549 -10.40127,-12.67886 -7.81836,-7.16754 -17.95476,3.88929 -10.1364,11.0568 z" /><path
       style="fill:#784421;stroke-width:0.264583"
       id="path1371"
       d="m 523.61919,865.28337 c 4.36452,1.32387 8.78015,2.44846 13.11188,3.87993 4.47117,1.65262 9.02311,3.11426 13.39191,5.02873 2.53503,1.10556 4.65035,2.8457 6.62194,4.74715 1.68336,1.7027 3.23866,3.52417 4.68008,5.43454 1.36726,1.87172 2.69314,3.77471 3.90409,5.75154 0.63762,1.06476 1.12101,2.20099 1.5766,3.35116 4.03283,9.81001 17.90628,4.10673 13.87345,-5.70328 v 0 c -0.79295,-1.89037 -1.60152,-3.77285 -2.68324,-5.52249 -1.47693,-2.38273 -3.05779,-4.69857 -4.72697,-6.95124 -1.93961,-2.54066 -4.00841,-4.98218 -6.28616,-7.22892 -3.27255,-3.08551 -6.82871,-5.84583 -10.992,-7.64021 -4.80074,-2.06565 -9.75416,-3.74536 -14.66951,-5.51484 -4.48651,-1.47198 -9.04684,-2.66777 -13.56871,-4.0223 -10.17545,-2.99345 -14.40878,11.39679 -4.23336,14.39023 z" /><path
       style="fill:#784421;stroke-width:0.264583"
       id="path1375"
       d="m 419.3274,999.83003 c 2.29429,-6.80276 3.55383,-13.87904 4.6654,-20.9522 0.97407,-6.64003 1.81335,-13.30055 2.48145,-19.97836 0.40394,-3.86083 0.54271,-7.73983 0.59581,-11.61894 0.004,-1.80377 0.0575,-3.60651 0.12042,-5.40896 0.0623,-1.17107 0.0329,-2.33812 -0.0674,-3.50509 -1.35795,-10.51933 -16.23452,-8.59891 -14.87657,1.92042 v 0 c -0.0923,-1.49307 0.0201,0.74083 -0.0469,1.06135 -0.0667,1.91011 -0.12287,3.82061 -0.12822,5.73209 -0.0447,3.44856 -0.16258,6.89719 -0.52297,10.32947 -0.63709,6.40027 -1.44701,12.78308 -2.37504,19.1475 -0.97157,6.22932 -2.04829,12.46825 -4.05415,18.46365 -3.40053,10.04674 10.80767,14.85574 14.20817,4.80907 z" /><path
       style="fill:#784421;stroke-width:0.264583"
       id="path1381"
       d="m 446.16925,1034.1958 c 4.06826,-0.071 8.09614,0.5961 12.08863,1.2977 4.33983,0.6799 8.42108,2.1423 12.26521,4.2298 3.37214,1.9249 6.30359,4.4848 9.18866,7.0564 2.04528,1.8665 4.09374,3.7297 6.12124,5.6155 0.73858,0.686 1.36546,1.4795 2.02949,2.2358 0.16097,0.2333 -0.30716,-0.4765 -0.46038,-0.715 4.72877,9.4941 18.15552,2.8067 13.42676,-6.6875 v 0 c -0.51591,-0.8799 -0.99351,-1.7527 -1.6977,-2.4979 -0.99716,-1.1343 -1.95818,-2.3058 -3.08306,-3.3195 -2.1074,-1.9596 -4.23545,-3.8969 -6.36254,-5.8351 -3.77695,-3.3585 -7.66151,-6.6363 -12.10765,-9.0901 -5.27227,-2.7742 -10.82365,-4.8382 -16.73683,-5.7683 -5.12138,-0.8913 -10.29456,-1.6832 -15.51098,-1.4984 -10.59,0.5934 -9.75085,15.5699 0.83915,14.9766 z" /><path
       style="fill:#784421;stroke-width:0.264583"
       id="path1387"
       d="m 473.88123,1099.0368 c 3.31108,1.035 6.05415,2.9742 8.38772,5.4908 2.4299,2.9484 4.07077,6.3657 4.94919,10.0661 0.70236,3.0911 0.53586,6.1127 -0.38711,9.1152 -0.83704,2.7389 -2.64547,4.8853 -4.50332,6.9894 -2.20004,2.451 -4.35999,4.9375 -6.51505,7.428 -1.28672,1.3547 -2.26144,2.9895 -3.61362,4.2816 -0.77825,0.5081 -1.55443,1.0184 -2.31016,1.5607 -0.85098,0.6857 -0.5003,0.3865 -1.06555,0.8815 -7.94856,7.0228 1.98326,18.2638 9.93182,11.2409 v 0 c -0.14515,0.067 0.61436,-0.4255 -0.0871,0.04 1.41039,-1.0302 2.95778,-1.8847 4.17979,-3.159 1.54551,-1.5865 2.88943,-3.3324 4.30768,-5.0306 2.13508,-2.4674 4.27532,-4.9305 6.4549,-7.3588 3.31499,-3.8054 6.24838,-7.8954 7.66197,-12.8184 1.52744,-5.702 1.85867,-11.1501 0.4627,-16.9465 -1.68717,-6.1926 -4.38417,-11.9526 -8.72802,-16.7636 -4.46485,-4.4592 -8.91577,-7.5794 -15.00884,-9.4413 -10.19926,-2.9112 -14.31628,11.5128 -4.11702,14.4239 z" /><path
       style="fill:#784421;stroke-width:0.264583"
       id="path1389"
       d="m 397.10957,1150.9861 c 2.3005,5.7085 3.92893,11.65 5.61274,17.56 1.93228,6.6198 3.86522,13.2428 6.10376,19.7666 1.66952,4.7876 3.98393,9.2755 6.98992,13.3505 1.23968,1.6488 2.77124,3.02 4.28945,4.3985 7.87648,7.1036 17.92245,-4.0355 10.04596,-11.1391 v 0 c -0.80367,-0.7222 -1.64462,-1.4093 -2.32992,-2.2521 -2.13783,-2.7742 -3.61079,-5.957 -4.81108,-9.2368 -2.16132,-6.2662 -3.99465,-12.6394 -5.86221,-18.9979 -1.86632,-6.5498 -3.69149,-13.1299 -6.28624,-19.439 -4.23505,-9.7244 -17.98745,-3.7352 -13.75238,5.9893 z" /><path
       style="fill:#784421;stroke-width:0.264583"
       id="path1393"
       d="m 542.24036,781.45139 c 1.43187,-5.3953 3.09745,-10.72637 4.77038,-16.0509 1.43068,-4.5109 2.87346,-9.03089 5.04844,-13.24567 1.20189,-2.24078 2.74672,-4.26781 4.31612,-6.25906 1.96715,-2.54077 3.88509,-5.11916 5.83832,-7.67059 1.69728,-2.22504 3.62855,-4.25141 5.60112,-6.23033 1.55567,-1.48172 3.03716,-3.05226 4.71861,-4.39518 1.34665,-0.85384 0.8215,-0.29046 -3.20953,0.25781 10.50661,1.45301 12.56147,-13.40556 2.05486,-14.85858 v 0 c -1.33538,0.14891 -2.67893,0.23707 -4.00611,0.44675 -1.60044,0.25281 -2.98254,1.72739 -4.30908,2.52122 -2.06566,1.69746 -3.97547,3.56719 -5.87775,5.44383 -2.42927,2.4417 -4.79324,4.95434 -6.88369,7.69776 -1.91246,2.49925 -3.79301,5.02285 -5.71653,7.51363 -2.17051,2.76395 -4.26633,5.60301 -5.8946,8.72908 -2.50994,4.9788 -4.35978,10.22657 -5.99075,15.55404 -1.7436,5.55186 -3.47787,11.11091 -4.96811,16.73712 -2.69343,10.25892 11.81489,14.068 14.5083,3.80907 z" /><path
       style="fill:#784421;stroke-width:0.264583"
       id="path1395"
       d="m 468.31554,516.49177 c 3.4554,0.46283 6.2706,2.604 8.9041,4.7289 3.53885,3.04088 6.6675,6.49462 9.35942,10.29769 2.05658,3.07967 3.90544,6.28856 5.66103,9.54674 1.09902,2.11442 2.20236,4.22651 3.28136,6.35122 0.66884,1.27992 1.31667,2.57149 2.03219,3.82627 3.96647,-2.99161 7.93294,-5.98326 11.89942,-8.97487 -6.85165,-8.0966 -18.30197,1.5931 -11.45032,9.6897 v 0 c 4.17949,-2.73992 8.35895,-5.47987 12.53842,-8.21979 -0.61227,-1.00073 -1.07051,-2.09248 -1.64579,-3.11382 -1.13461,-2.23372 -2.29365,-4.45482 -3.4516,-6.6765 -2.05602,-3.81235 -4.22862,-7.56436 -6.66144,-11.15131 -3.54652,-4.9267 -7.59973,-9.45163 -12.27042,-13.35048 -5.17408,-4.02421 -10.79968,-7.46504 -17.51346,-7.93822 -10.59561,-0.48289 -11.27852,14.50155 -0.68291,14.98447 z" /><path
       style="fill:#784421;stroke-width:0.264583"
       id="path1399"
       d="m 348.48194,127.24949 c -3.09023,3.85932 -6.06981,7.7993 -8.87852,11.86791 -3.46908,5.12027 -6.31571,10.60895 -8.72842,16.29349 -2.04846,5.1461 -3.45432,10.51105 -4.74469,15.88739 -0.93533,4.01611 -1.84174,8.03995 -2.65653,12.08243 -0.3425,1.74125 -0.67159,3.48575 -0.88365,5.24827 -1.1444,5.63829 13.54129,7.66257 14.94975,2.14028 2.59271,-10.28484 -11.95223,-13.9515 -14.54496,-3.66667 v 0 c -1.26844,5.1443 14.15123,8.46761 14.49152,3.28709 0.15499,-1.36197 0.44272,-2.7041 0.6927,-4.05062 0.77557,-3.86344 1.64804,-7.70721 2.53828,-11.5456 1.09559,-4.58092 2.272,-9.15686 3.97923,-13.5549 1.98805,-4.75539 4.38637,-9.32559 7.25935,-13.61152 2.64146,-3.84367 5.47343,-7.54439 8.38242,-11.18933 6.49705,-8.3838 -5.35943,-17.57203 -11.85648,-9.18822 z" /><path
       style="fill:#784421;stroke-width:0.264583"
       id="path1401"
       d="m 506.54455,271.65781 c 3.99298,-2.62861 7.87199,-5.4221 11.95382,-7.91373 2.86425,-1.73355 5.94601,-3.02143 9.0855,-4.155 2.80305,-0.9623 5.6302,-1.86805 8.51342,-2.55926 2.29248,-0.60382 4.59436,-1.1286 6.93534,-1.50165 1.09209,-0.19789 2.1968,-0.22444 3.29948,-0.29269 10.57915,-0.76268 9.50055,-15.72385 -1.07857,-14.96117 v 0 c -1.51265,0.22362 -3.09579,0.074 -4.59798,0.44341 -2.73193,0.44096 -5.42674,1.03322 -8.10297,1.73695 -3.41109,0.83795 -6.77037,1.87215 -10.08507,3.03396 -4.08319,1.48743 -8.08252,3.19843 -11.80431,5.46442 -4.12877,2.53639 -8.09016,5.31892 -12.11532,8.01409 -8.97366,5.6545 -0.977,18.34519 7.99666,12.69067 z" /><path
       style="fill:#784421;stroke-width:0.264583"
       id="path1403"
       d="m 524.56222,328.66602 c 3.32804,3.15331 6.99937,5.89267 10.81503,8.42023 3.62688,2.33942 7.57198,4.09459 11.56324,5.70286 3.10791,1.23484 6.32794,2.13926 9.5889,2.86168 2.60221,0.59428 5.26767,0.61973 7.92081,0.58502 2.15823,-0.066 4.30016,-0.35483 6.41167,-0.79452 0.84749,-0.24773 1.70453,-0.3402 2.57762,-0.40754 1.18722,-0.0554 2.34898,-0.28683 3.51563,-0.48979 1.72603,-0.29446 3.2376,-1.03413 4.70728,-1.94913 8.55911,-6.26431 -0.29996,-18.36873 -8.85907,-12.10443 v 0 c 1.07177,-0.6346 1.06622,-0.6741 1.39732,-0.69138 -0.6417,0.12263 -1.27043,0.26374 -1.92953,0.28033 -1.54178,0.12157 -3.07271,0.3185 -4.57446,0.69971 -1.13017,0.26882 -2.29423,0.37539 -3.45067,0.45813 -1.50521,0.0214 -3.02347,0.0848 -4.50503,-0.23855 -2.451,-0.52898 -4.86754,-1.21142 -7.20463,-2.12667 -3.06189,-1.22801 -6.10407,-2.53722 -8.90003,-4.30723 -3.13735,-2.05798 -6.1427,-4.30829 -8.87042,-6.89351 -7.77449,-7.21508 -17.97815,3.77971 -10.20366,10.99479 z" /><path
       style="fill:#784421;stroke-width:0.264583"
       id="path1405"
       d="m 689.40248,429.71833 c 2.73238,-4.83775 5.43377,-9.69298 8.13988,-14.54547 2.38673,-4.22997 4.7426,-8.47767 7.04088,-12.75638 1.98877,-3.76409 3.92364,-7.55769 5.73294,-11.4115 1.48497,-3.17929 2.6539,-6.48817 3.71207,-9.8293 0.81286,-2.36318 1.12525,-4.84021 1.4871,-7.29956 0.0915,-0.83204 0.36324,-1.94742 0.38507,-2.02005 -0.11964,0.3255 -0.23929,0.65099 -0.35896,0.9765 4.54078,-9.58548 -9.01512,-16.0071 -13.5559,-6.42162 v 0 c -0.16113,0.41307 -0.32226,0.82613 -0.48342,1.2392 -0.38338,1.32551 -0.62855,2.67833 -0.82706,4.04291 -0.2453,1.66783 -0.39465,3.35677 -0.94875,4.95991 -0.8564,2.71296 -1.78995,5.40449 -2.99272,7.98695 -1.68778,3.60926 -3.50999,7.15423 -5.36538,10.67983 -2.25986,4.20915 -4.57931,8.38623 -6.92645,12.54728 -2.66219,4.77377 -5.32069,9.54969 -8.00603,14.31047 -5.33217,9.16887 7.63455,16.7097 12.96673,7.54083 z" /><path
       style="fill:#784421;stroke-width:0.264583"
       id="path1407"
       d="m 311.3347,355.50829 c 1.11416,3.93271 2.15091,7.88456 3.09817,11.86064 0.98388,4.33689 2.12542,8.63462 3.40368,12.89341 1.28161,3.95406 2.32322,7.97819 3.41952,11.9857 1.09707,3.80304 1.92011,7.67556 2.85227,11.52022 0.80793,3.53283 1.98596,6.94 3.69559,10.13376 1.65245,2.30491 0.73726,1.23637 2.7409,3.20963 8.06294,6.89121 17.8086,-4.51152 9.74563,-11.40275 v 0 c 0.61167,0.73332 0.49972,0.39151 0.61407,0.88731 -1.22676,-1.89235 -1.57525,-4.24434 -2.21916,-6.36492 -0.96782,-3.98534 -1.82174,-7.99976 -2.96109,-11.94184 -1.12974,-4.12832 -2.20519,-8.27318 -3.52329,-12.34715 -1.19947,-3.97923 -2.25645,-7.99899 -3.17712,-12.05222 -0.97708,-4.09512 -2.03859,-8.16753 -3.18796,-12.21785 -2.71251,-10.2539 -17.21372,-6.41781 -14.50121,3.83606 z" /><path
       style="fill:#784421;stroke-width:0.264583"
       id="path1411"
       d="m 579.81394,932.20436 c 2.54183,2.24305 4.23439,5.13521 5.64666,8.17107 1.29905,3.10163 2.05568,6.38302 2.52656,9.70166 0.39854,3.10235 0.57399,6.2297 0.46188,9.35519 -0.0857,2.42578 -0.68114,4.76806 -1.41306,7.06731 -0.90183,2.50992 -1.92484,4.97346 -2.85948,7.47126 -0.96237,2.52915 -1.74406,5.12066 -2.44989,7.73139 0.64718,-1.64378 -1.39644,4.55567 -0.74943,2.7809 0.10652,-0.29226 0.12155,-0.6436 0.33298,-0.87172 1.08315,-1.16864 2.33085,-2.17321 3.49626,-3.2598 2.24441,0.16626 4.48881,0.3325 6.73322,0.49876 -8.89079,-5.78392 -17.07049,6.78958 -8.17967,12.57351 v 0 c 2.3931,0.26299 4.78623,0.52599 7.17933,0.78898 1.31879,-1.15004 2.7676,-2.16611 3.95637,-3.45008 1.05873,-1.14351 1.16435,-3.69851 1.71395,-5.15631 0.57925,-2.15643 1.22197,-4.29718 2.01784,-6.3849 1.02658,-2.7514 2.17638,-5.4561 3.1224,-8.23724 1.11824,-3.6077 1.97644,-7.29314 2.09198,-11.08726 0.11092,-4.00974 -0.0683,-8.02109 -0.61375,-11.99862 -0.72025,-4.79425 -1.84671,-9.53026 -3.82688,-13.97688 -2.40472,-4.96837 -5.34702,-9.64099 -9.60083,-13.25412 -8.15782,-6.77865 -17.74426,4.75825 -9.58644,11.5369 z" /><path
       style="fill:#784421;stroke-width:0.264583"
       id="path1413"
       d="m 490.25984,914.55593 c 3.11528,1.34112 5.69151,3.5501 8.00161,5.9844 2.76497,3.35923 5.07251,7.08168 7.30049,10.81217 1.84819,3.11473 3.31128,6.43237 4.74265,9.75265 1.1203,2.54066 1.93916,5.19232 2.69214,7.85977 0.61299,2.00125 1.04071,4.04315 1.40555,6.10116 0.22706,1.13215 0.39057,2.27554 0.61531,3.40799 0.054,1.72572 0.0739,-2.22562 -0.13168,-0.8718 0,0.0175 -0.10189,0.64021 -0.03,0.19907 -2.01361,10.41371 12.7136,13.26136 14.72721,2.84766 v 0 c 0.048,-0.26604 0.0959,-0.53192 0.13348,-0.79968 0.21604,-1.42841 0.35481,-2.87626 0.0124,-4.30273 -0.20601,-1.03114 -0.34483,-2.07505 -0.55827,-3.1051 -0.45392,-2.54873 -0.99468,-5.07786 -1.74051,-7.55946 -0.9353,-3.30058 -1.97168,-6.57511 -3.35365,-9.72066 -1.69606,-3.92597 -3.44964,-7.83799 -5.6461,-11.51578 -2.83469,-4.72226 -5.76927,-9.43867 -9.42766,-13.57522 -4.07617,-4.11414 -8.60563,-7.78721 -14.12216,-9.78492 -10.09076,-3.26753 -14.71173,11.00296 -4.62098,14.27048 z" /><path
       style="fill:#784421;stroke-width:0.264583"
       id="path1417"
       d="m 610.17596,719.65348 c -1.86917,5.83713 -2.6086,11.9257 -3.12891,18.00598 -0.54446,6.5618 -0.42264,13.14786 -0.26913,19.72212 0.0715,5.36231 0.25376,10.72013 0.53877,16.07505 0.17047,4.3411 0.561,8.66458 1.33149,12.94046 0.62238,3.16375 1.70879,6.20217 3.10997,9.09841 0.87188,1.75138 2.05949,3.30248 3.35113,4.75985 0.83489,0.98886 1.86013,1.93353 2.94672,2.7635 1.91619,1.20607 0.64788,0.53014 4.00767,1.59004 10.53827,1.20203 12.23819,-13.70135 1.69992,-14.90337 v 0 c 2.91245,0.97517 1.92622,0.36549 3.23739,1.27225 0.1674,0.3416 -0.44903,-0.48964 -0.69715,-0.70652 -0.3954,-0.43725 -0.79711,-0.87593 -1.08498,-1.39459 -0.83524,-1.63862 -1.4223,-3.39331 -1.81729,-5.18843 -0.6863,-3.63887 -0.93742,-7.33441 -1.10612,-11.02987 -0.27784,-5.20594 -0.45259,-10.41469 -0.52162,-15.62788 -0.14172,-6.03618 -0.27208,-12.08363 0.22008,-18.10919 0.4006,-4.82204 0.9371,-9.6515 2.33693,-14.30396 3.50996,-10.009 -10.6449,-14.97285 -14.15487,-4.96385 z" /><path
       style="fill:#784421;stroke-width:0.264583"
       id="path1419"
       d="m 476.99951,478.13655 c 4.27886,-1.12993 8.53805,-2.33807 12.74212,-3.72141 3.59431,-1.22553 7.10538,-2.67256 10.71684,-3.84821 2.9646,-0.94946 5.97146,-1.75802 8.95943,-2.62972 2.13659,-0.60571 4.2333,-1.35824 6.41125,-1.80703 1.48682,-0.25281 2.99315,-0.35316 4.49162,-0.51001 1.36781,-0.14266 2.74126,-0.18743 4.10871,-0.33255 1.0355,-0.11496 2.03515,-0.42659 3.06972,-0.53943 -0.24071,0.0638 -0.45209,0.0506 -0.55276,0.0414 0.95086,0.15484 0.58904,0.10954 1.08108,0.16711 10.53685,1.21434 12.25415,-13.68705 1.71728,-14.90136 v 0 c -0.0175,-0.003 -0.0348,-0.004 -0.0522,-0.006 0.16901,0.0323 0.33803,0.0646 0.50707,0.0969 -1.48225,-0.31956 -2.99611,-0.45318 -4.50958,-0.28892 -1.00664,0.12689 -2.00853,0.28686 -2.99437,0.53043 -1.30088,0.21617 -2.65218,0.0868 -3.95489,0.31547 -2.03388,0.21902 -4.08146,0.34956 -6.08906,0.76697 -2.51474,0.55922 -4.97258,1.31292 -7.43482,2.06693 -3.14262,0.91683 -6.30542,1.76646 -9.42123,2.77254 -3.6222,1.18914 -7.16071,2.59971 -10.7573,3.86151 -3.89633,1.29196 -7.85297,2.39318 -11.81907,3.44914 -10.26427,2.67298 -6.48409,17.18884 3.78016,14.51586 z" /><path
       style="fill:#784421;stroke-width:0.264583"
       id="path245"
       d="m 178.82667,308.12882 c 3.46704,-2.65728 7.21493,-4.89513 11.12345,-6.83146 4.03697,-1.72923 8.2738,-2.96248 12.53325,-4.00814 3.8042,-0.88961 7.67926,-1.40021 11.56641,-1.74276 3.749,-0.30739 7.49507,0.028 11.19636,0.62076 3.64788,0.55203 7.03149,1.89429 10.20397,3.73372 2.34468,1.40849 4.38452,3.24194 6.56384,4.87871 8.52357,6.31259 17.45091,-5.74154 8.92734,-12.05413 v 0 c -2.71025,-1.93791 -5.13795,-4.28976 -8.0995,-5.87689 -4.77818,-2.66618 -9.83648,-4.69157 -15.28334,-5.50209 -4.91122,-0.75124 -9.87525,-1.17594 -14.84288,-0.74063 -4.65208,0.42003 -9.28944,1.04003 -13.83906,2.12342 -5.32323,1.32829 -10.62228,2.87509 -15.62812,5.14839 -4.70181,2.36255 -9.237,5.03944 -13.41861,8.24876 -8.48693,6.36177 0.50997,18.36409 8.99689,12.00234 z" /></g><g
     inkscape:groupmode="layer"
     id="layer4"
     inkscape:label="Layer 4"
     style="fill:#c87137"><path
       style="fill:#ff5555;stroke-width:0.264583"
       id="path381"
       d="m 299.63139,70.526727 c -4.73329,8.257555 -7.51584,17.341016 -9.42166,26.60947 -0.78478,4.109283 -1.05534,8.278493 -1.28301,12.445603 -0.30396,5.64868 7.6845,6.07852 7.98843,0.42983 v 0 c 0.19973,-3.77565 0.43304,-7.55382 1.13363,-11.278709 1.70045,-8.437875 4.23072,-16.702307 8.51972,-24.221667 2.81749,-4.905283 -4.11964,-8.889807 -6.93711,-3.984527 z" /><path
       style="fill:#ff5555;stroke-width:0.264583"
       id="path383"
       d="m 121.8141,220.39863 c 7.98154,-0.24165 15.88535,1.57525 23.72473,2.87348 5.03937,0.80238 2.65261,0.42854 7.15973,1.12517 5.59049,0.86401 6.81238,-7.04212 1.2219,-7.90613 v 0 c -4.45482,-0.68843 -2.09643,-0.31911 -7.07462,-1.11155 -8.67545,-1.43666 -17.44602,-3.47259 -26.28415,-2.88232 -5.5871,0.88558 -4.33469,8.78694 1.25241,7.90135 z" /><path
       style="fill:#ff5555;stroke-width:0.264583"
       id="path385"
       d="m 260.8627,223.64304 c 3.05774,-7.21402 7.30296,-13.81267 11.71446,-20.25549 2.4942,-3.39833 1.29392,-1.8195 3.58304,-4.74997 3.47924,-4.46037 -2.82866,-9.38076 -6.3079,-4.92039 v 0 c -2.48563,3.19068 -1.18698,1.47758 -3.87774,5.15307 -4.7005,6.87558 -9.20706,13.9257 -12.46492,21.62121 -2.2285,5.1994 5.12456,8.35098 7.35306,3.15157 z" /><path
       style="fill:#ff5555;stroke-width:0.264583"
       id="path387"
       d="m 323.11631,151.69706 c 7.62396,2.16216 15.39599,3.71866 22.99663,5.96629 0.96525,0.38276 1.9305,0.76553 2.89576,1.14829 5.26833,2.06024 8.18194,-5.39031 2.91361,-7.45056 v 0 c -1.18215,-0.457 -2.36429,-0.914 -3.54644,-1.371 -7.65591,-2.2521 -15.47162,-3.85192 -23.15258,-6.01058 -5.45714,-1.48986 -7.56412,6.22769 -2.10698,7.71756 z" /><path
       style="fill:#ff5555;stroke-width:0.264583"
       id="path389"
       d="m 447.23547,197.15436 c 7.2173,-1.18794 14.54724,-1.01236 21.83111,-1.29429 5.12244,-0.47437 2.68351,-0.17904 7.32097,-0.85082 5.5971,-0.8199 4.43759,-8.73542 -1.15954,-7.91552 v 0 c -4.08193,0.60553 -1.92587,0.33676 -6.47234,0.77238 -7.56216,0.29554 -15.17092,0.12592 -22.66312,1.37031 -5.59882,0.80818 -4.4559,8.72612 1.14292,7.91794 z" /><path
       style="fill:#ff5555;stroke-width:0.264583"
       id="path391"
       d="m 537.68685,157.93403 c 4.03381,-5.50725 8.5089,-10.66019 13.12349,-15.68287 2.33011,-2.38548 1.22201,-1.29866 3.30626,-3.27879 4.09583,-3.90182 -1.42216,-9.6942 -5.51799,-5.79239 v 0 c -2.34939,2.2434 -1.1172,1.0289 -3.6804,3.65984 -4.79264,5.22041 -9.44036,10.57617 -13.6333,16.29679 -3.39227,4.52684 3.00967,9.32427 6.40194,4.79742 z" /><path
       style="fill:#ff5555;stroke-width:0.264583"
       id="path393"
       d="m 369.50456,273.52836 c -0.70884,7.42585 -1.05224,14.87988 -1.38297,22.33015 -0.18889,3.67712 -0.0921,1.9454 -0.2852,5.19544 -0.33512,5.64692 7.65083,6.12087 7.98595,0.47394 v 0 c 0.19759,-3.33229 0.0988,-1.56083 0.29138,-5.31465 0.32187,-7.2525 0.6558,-14.5083 1.33459,-21.73799 0.66955,-5.6171 -7.27419,-6.56399 -7.94375,-0.94689 z" /><path
       style="fill:#ff5555;stroke-width:0.264583"
       id="path395"
       d="m 220.58182,278.09211 c -4.14223,5.76844 -8.09804,11.65571 -11.37918,17.95923 -1.48144,3.48657 -0.85693,1.82038 -1.92225,4.98001 -1.77975,5.36959 5.814,7.88654 7.59375,2.51693 v 0 c 0.7703,-2.37969 0.30915,-1.10125 1.43211,-3.81744 3.09837,-6.01575 6.93241,-11.58213 10.85441,-17.08695 3.2186,-4.65193 -3.36024,-9.20374 -6.57884,-4.55178 z" /><path
       style="fill:#ff5555;stroke-width:0.264583"
       id="path397"
       d="m 135.42998,395.72572 c 6.01729,-2.36616 11.8235,-5.18112 17.54911,-8.1748 5.01251,-2.62197 1.30447,-9.71074 -3.70804,-7.08877 v 0 c -5.57863,2.91944 -11.23915,5.65333 -17.10313,7.95885 -5.16522,2.30661 -1.90316,9.61134 3.26206,7.30472 z" /><path
       style="fill:#ff5555;stroke-width:0.264583"
       id="path399"
       d="m 247.26926,370.4323 c 6.78002,3.59984 13.3049,7.64889 20.10852,11.20764 0.90006,0.43088 1.80009,0.86172 2.70015,1.29257 5.10448,2.43811 8.55247,-4.78073 3.448,-7.21881 v 0 c -0.81455,-0.38812 -1.62912,-0.77623 -2.44367,-1.16435 -6.92077,-3.61117 -13.53197,-7.77052 -20.4538,-11.37761 -5.13399,-2.37533 -8.49319,4.88524 -3.3592,7.26056 z" /><path
       style="fill:#ff5555;stroke-width:0.264583"
       id="path403"
       d="m 318.02239,390.12262 c 5.44687,-3.10701 10.86255,-6.24928 16.46859,-9.06677 5.05394,-2.54124 1.46008,-9.68857 -3.59386,-7.14732 v 0 c -5.48669,2.76013 -10.82638,5.77522 -16.11307,8.89883 -5.17269,2.28987 -1.93432,9.60512 3.23834,7.31526 z" /><path
       style="fill:#ff5555;stroke-width:0.264583"
       id="path405"
       d="m 281.91645,455.91716 c -4.7847,6.29177 -8.60981,13.18858 -12.06204,20.2769 -1.35689,2.6607 -2.38294,5.44327 -3.23067,8.29749 -1.57726,5.43253 6.10548,7.6631 7.68274,2.2306 v 0 c 0.68278,-2.43115 1.60718,-4.76901 2.74269,-7.03017 3.27253,-6.74391 6.91944,-13.29031 11.47586,-19.26632 3.18799,-4.67296 -3.42059,-9.18146 -6.60858,-4.5085 z" /><path
       style="fill:#ff5555;stroke-width:0.264583"
       id="path407"
       d="m 419.19982,406.02487 c 7.23929,0.54089 14.4875,-0.0302 21.70697,-0.56944 1.10887,-0.0876 2.21772,-0.17518 3.32658,-0.26278 5.63928,-0.44548 5.00925,-8.42066 -0.63005,-7.97515 v 0 c -1.09752,0.0867 -2.19503,0.17343 -3.29255,0.26016 -6.79165,0.50755 -13.6094,1.06659 -20.42105,0.57701 -5.63578,-0.48784 -6.32568,7.48236 -0.6899,7.9702 z" /><path
       style="fill:#ff5555;stroke-width:0.264583"
       id="path409"
       d="m 506.53886,404.77016 c 3.35092,-5.06338 6.95145,-9.95378 10.86995,-14.59135 2.13953,-2.52732 1.10988,-1.30188 3.09074,-3.67479 3.62497,-4.34277 -2.51664,-9.46926 -6.14159,-5.12646 v 0 c -1.94781,2.3337 -0.92742,1.11908 -3.0633,3.64206 -4.12657,4.89644 -7.9353,10.04578 -11.46341,15.39074 -3.08285,4.74297 3.62474,9.1028 6.70761,4.3598 z" /><path
       style="fill:#ff5555;stroke-width:0.264583"
       id="path411"
       d="m 551.05085,318.00389 c -1.38692,7.67165 -2.74653,15.34571 -3.85419,23.06318 -0.12686,1.09672 -0.2537,2.19345 -0.38055,3.29017 -0.6473,5.6197 7.30015,6.53513 7.94745,0.91543 v 0 c 0.11737,-1.02333 0.23471,-2.04663 0.35208,-3.06996 1.08405,-7.56581 2.42123,-15.08784 3.77571,-22.60933 1.12395,-5.54405 -6.71655,-7.13356 -7.8405,-1.58949 z" /><path
       style="fill:#ff5555;stroke-width:0.264583"
       id="path413"
       d="m 514.10197,244.18588 c 2.12498,6.41696 4.13182,12.86647 6.60017,19.1626 2.0688,5.26498 9.5146,2.33925 7.44579,-2.92573 v 0 c -2.46573,-6.25969 -4.41864,-12.69102 -6.5623,-19.06444 -1.9994,-5.29173 -9.48303,-2.46416 -7.48366,2.82757 z" /><path
       style="fill:#ff5555;stroke-width:0.264583"
       id="path415"
       d="m 616.02561,285.07626 c 7.3954,-0.79536 14.81391,-1.19504 22.19672,-2.14921 1.08246,-0.15761 2.16492,-0.31525 3.24739,-0.47289 5.59768,-0.816 4.44367,-8.73233 -1.15401,-7.91631 v 0 c -1.04034,0.15182 -2.08068,0.30364 -3.12103,0.45548 -7.57147,0.98301 -15.18838,1.31797 -22.76152,2.24304 -5.54365,1.12601 -3.95121,8.96593 1.59245,7.83989 z" /><path
       style="fill:#ff5555;stroke-width:0.264583"
       id="path417"
       d="m 870.19513,311.34783 c -1.55403,6.74399 -3.31126,13.44181 -5.05114,20.14029 -0.17452,0.6259 -0.34901,1.25177 -0.5235,1.87767 -1.51752,5.44952 6.18926,7.5956 7.70675,2.14609 v 0 c 0.18664,-0.67096 0.37325,-1.34189 0.55989,-2.01285 1.77932,-6.85249 3.58135,-13.7033 5.15726,-20.60548 1.09296,-5.55027 -6.75627,-7.096 -7.84926,-1.54572 z" /><path
       style="fill:#ff5555;stroke-width:0.264583"
       id="path419"
       d="m 811.01278,406.78745 c 7.42358,-3.37992 14.6122,-7.24466 21.97505,-10.75386 1.65216,-0.80369 3.34846,-1.49778 5.09638,-2.05777 5.37559,-1.76149 2.88449,-9.36373 -2.49111,-7.60227 v 0 c -2.06571,0.68733 -4.09194,1.47526 -6.04819,2.4388 -7.25392,3.45964 -14.3434,7.25403 -21.64746,10.60661 -5.21031,2.20287 -2.095,9.57136 3.11533,7.36849 z" /><path
       style="fill:#ff5555;stroke-width:0.264583"
       id="path421"
       d="m 683.06356,399.6695 c 6.54434,1.78157 13.15543,3.32248 19.55507,5.58358 3.73351,1.64872 1.9499,0.80203 5.3594,2.52174 5.05587,2.53736 8.64423,-4.61272 3.58836,-7.15007 v 0 c -3.9714,-1.9844 -1.8768,-1.00192 -6.2968,-2.91968 -6.7266,-2.34997 -13.64948,-4.02619 -20.53095,-5.85824 -5.53146,-1.18446 -7.20653,6.63821 -1.67508,7.82267 z" /><path
       style="fill:#ff5555;stroke-width:0.264583"
       id="path423"
       d="m 614.0564,552.08339 c 5.6996,3.17262 11.33424,6.4617 17.0312,9.63914 4.01106,1.94156 2.07327,1.08585 5.79652,2.60495 5.24383,2.12186 8.24457,-5.29405 3.00072,-7.4159 v 0 c -3.10783,-1.24478 -1.46802,-0.53308 -4.90133,-2.17633 -5.56358,-3.10113 -11.058,-6.32539 -16.63491,-9.40295 -4.77375,-3.03503 -9.06592,3.71605 -4.2922,6.75109 z" /><path
       style="fill:#ff5555;stroke-width:0.264583"
       id="path425"
       d="m 496.72552,452.82437 c 0.64584,6.59389 1.46952,13.16738 2.34621,19.73392 0.74872,5.6071 8.67834,4.54829 7.92965,-1.05881 v 0 c -0.86921,-6.50878 -1.68519,-13.02454 -2.325,-19.56049 -0.62606,-5.6221 -8.57692,-4.73673 -7.95086,0.88538 z" /><path
       style="fill:#ff5555;stroke-width:0.264583"
       id="path427"
       d="m 485.35521,534.37676 c 3.22897,-4.37007 6.81646,-8.46029 10.39929,-12.54009 1.91822,-2.24729 3.97811,-4.36666 5.96148,-6.55463 3.79463,-4.19534 -2.13847,-9.56175 -5.9331,-5.36641 v 0 c -2.00408,2.22194 -4.10135,4.36084 -6.03982,6.64255 -3.74844,4.26942 -7.49795,8.55281 -10.87022,13.13042 -3.31502,4.58372 3.16735,9.27188 6.48237,4.68816 z" /><path
       style="fill:#ff5555;stroke-width:0.264583"
       id="path429"
       d="m 395.0468,615.67234 c 6.62694,3.71345 13.69722,6.56029 20.73778,9.38009 4.06331,1.55781 2.13474,0.83169 5.78308,2.18535 5.30373,1.96736 8.08598,-5.53323 2.78225,-7.50059 v 0 c -3.53063,-1.3093 -1.66587,-0.60765 -5.59176,-2.11159 -6.66022,-2.66573 -13.3518,-5.34937 -19.63372,-8.83608 -4.86688,-2.88332 -8.9445,3.9995 -4.07763,6.88282 z" /><path
       style="fill:#ff5555;stroke-width:0.264583"
       id="path431"
       d="m 495.57159,609.41277 c 3.33888,6.92052 6.04591,14.12169 8.89045,21.25343 1.47537,3.69191 0.79684,1.98974 2.03684,5.10603 2.09143,5.25603 9.52458,2.2983 7.43315,-2.95772 v 0 c -1.24373,-3.12561 -0.56438,-1.42142 -2.03925,-5.11212 -2.92814,-7.34129 -5.71815,-14.75283 -9.16763,-21.87104 -2.53245,-5.05833 -9.68599,-1.47691 -7.15356,3.58142 z" /><path
       style="fill:#ff5555;stroke-width:0.264583"
       id="path433"
       d="m 529.0282,748.47931 c 7.4734,3.47958 15.19881,6.33097 23.0218,8.9091 2.58482,0.84653 5.20364,1.57935 7.82833,2.28928 5.461,1.47555 7.54777,-6.2475 2.08674,-7.72306 v 0 c -2.48539,-0.67079 -4.96506,-1.36392 -7.41257,-2.16474 -7.68283,-2.52851 -15.25905,-5.34564 -22.59959,-8.75681 -5.26526,-2.06806 -8.18997,5.37814 -2.92471,7.44623 z" /><path
       style="fill:#ff5555;stroke-width:0.264583"
       id="path435"
       d="m 594.2839,763.37 c 8.3231,-0.537 16.40517,-2.81323 24.49817,-4.68791 3.56343,-0.67842 1.90089,-0.40211 4.98239,-0.85974 5.59424,-0.83942 4.40714,-8.75085 -1.18711,-7.91144 v 0 c -3.49964,0.52981 -1.63102,0.21384 -5.60077,0.97759 -7.52909,1.74431 -15.04196,3.86222 -22.77042,4.48188 -5.65658,0.055 -5.57884,8.0546 0.0777,7.99962 z" /><path
       style="fill:#ff5555;stroke-width:0.264583"
       id="path437"
       d="m 688.52499,709.47589 c 4.62237,-5.57406 10.09695,-10.35902 15.59957,-15.03574 1.68198,-1.41058 3.41508,-2.75612 5.18033,-4.05982 4.54744,-3.36466 -0.21088,-9.7957 -4.75832,-6.43105 v 0 c -1.9081,1.4141 -3.78638,2.867 -5.60446,4.39643 -5.90973,5.02793 -11.77713,10.18473 -16.71571,16.19789 -3.48766,4.45379 2.81093,9.38607 6.29859,4.93229 z" /><path
       style="fill:#ff5555;stroke-width:0.264583"
       id="path439"
       d="m 390.2769,796.30478 c 5.26856,-4.24566 10.45649,-8.5866 15.7853,-12.75752 2.3422,-1.82793 4.70802,-3.62437 7.1188,-5.36078 4.58941,-3.30716 -0.0876,-9.79757 -4.67701,-6.49041 v 0 c -2.49608,1.79943 -4.94803,3.65779 -7.37315,5.55186 -5.33439,4.1766 -10.53208,8.51805 -15.80395,12.77215 -4.44397,3.5002 0.50606,9.7849 4.95001,6.2847 z" /><path
       style="fill:#ff5555;stroke-width:0.264583"
       id="path441"
       d="m 838.48537,609.25138 c 1.16734,6.79825 2.42586,13.58371 3.4671,20.40281 0.34599,2.51196 0.19365,1.37136 0.46175,3.4212 0.73395,5.60903 8.66632,4.57107 7.93237,-1.03799 v 0 c -0.28067,-2.14384 -0.12044,-0.94607 -0.48604,-3.59262 -1.05873,-6.9124 -2.3276,-13.79215 -3.51512,-20.68317 -1.05344,-5.55791 -8.9135,-4.06812 -7.86006,1.48977 z" /><path
       style="fill:#ff5555;stroke-width:0.264583"
       id="path443"
       d="m 763.82789,568.6826 c 4.09739,-5.65277 8.86899,-10.75057 13.77061,-15.70283 2.33447,-2.25645 1.23211,-1.21248 3.2993,-3.14008 4.13599,-3.85924 -1.3218,-9.70841 -5.45777,-5.84917 v 0 c -2.21385,2.06698 -1.03497,0.94904 -3.52838,3.36254 -5.15771,5.21465 -10.17119,10.58873 -14.48808,16.53529 -3.39002,4.52856 3.01429,9.32278 6.40432,4.79425 z" /><path
       style="fill:#ff5555;stroke-width:0.264583"
       id="path445"
       d="m 837.45254,506.76095 c 3.61434,-5.36517 6.96719,-10.89919 10.41133,-16.37345 1.80919,-2.79776 3.66374,-5.5689 5.61139,-8.27259 3.30398,-4.59169 -3.18966,-9.26423 -6.49364,-4.67252 v 0 c -2.04171,2.84033 -3.99392,5.74543 -5.88921,8.68513 -3.38076,5.37427 -6.67308,10.80633 -10.21556,16.07707 -3.22183,4.6497 3.35386,9.20607 6.57569,4.55636 z" /><path
       style="fill:#ff5555;stroke-width:0.264583"
       id="path447"
       d="m 936.0628,459.24133 c -0.60481,5.51516 -0.76983,11.06895 -0.76509,16.61372 -0.003,2.10008 -1.1e-4,1.13673 -0.006,2.89004 -0.0199,5.65682 7.97999,5.68505 7.99994,0.0282 v 0 c 0.006,-1.77806 0.004,-0.80222 0.006,-2.92743 -0.008,-5.23598 0.14623,-10.48094 0.71257,-15.68937 0.64715,-5.6197 -7.30033,-6.53492 -7.94747,-0.9152 z" /><path
       style="fill:#ff5555;stroke-width:0.264583"
       id="path449"
       d="m 702.49716,800.92673 c 3.56706,4.21349 7.15745,8.40579 10.64175,12.68831 1.24741,1.59546 2.54881,3.14685 3.85207,4.69651 3.64101,4.3293 9.7636,-0.81986 6.12259,-5.14919 v 0 c -1.27545,-1.51656 -2.54974,-3.03426 -3.76944,-4.59658 -3.52772,-4.33482 -7.16068,-8.58012 -10.77246,-12.84483 -3.68101,-4.29535 -9.75555,0.91043 -6.07451,5.20578 z" /><path
       style="fill:#ff5555;stroke-width:0.264583"
       id="path451"
       d="m 546.18048,882.65692 c 3.92438,-6.89438 8.47556,-13.39942 13.20265,-19.76033 1.8668,-2.20482 3.46218,-4.77395 5.8283,-6.49758 4.44333,-3.50099 -0.50779,-9.78479 -4.95112,-6.28383 v 0 c -2.82099,2.30394 -5.11977,5.09754 -7.29933,8.01111 -4.93948,6.653 -9.6942,13.45742 -13.78807,20.67137 -2.72891,4.95511 4.27868,8.81438 7.00757,3.85926 z" /><path
       style="fill:#ff5555;stroke-width:0.264583"
       id="path453"
       d="m 579.32248,962.22398 c 6.91734,-1.34215 14.01328,-1.08767 21.01146,-0.74081 3.99648,0.20479 7.96295,0.73848 11.94342,1.11914 5.63134,0.53665 6.3903,-7.42728 0.75896,-7.96393 v 0 c -4.10279,-0.38952 -8.1907,-0.94353 -12.31048,-1.1456 -7.78589,-0.37806 -15.68124,-0.61822 -23.36035,0.97425 -5.485,1.3838 -3.52801,9.14075 1.95699,7.75695 z" /><path
       style="fill:#ff5555;stroke-width:0.264583"
       id="path455"
       d="m 506.63765,941.51258 c 4.16441,-5.90182 9.23785,-11.07792 14.43681,-16.06208 1.8316,-1.7304 3.7438,-3.36069 5.77506,-4.84868 4.54771,-3.36428 -0.21008,-9.79572 -4.75779,-6.43144 v 0 c -2.29219,1.7085 -4.48895,3.52872 -6.55667,5.5082 -5.5712,5.35221 -10.99886,10.91515 -15.45592,17.25295 -3.2393,4.63759 3.31922,9.21862 6.55851,4.58105 z" /><path
       style="fill:#ff5555;stroke-width:0.264583"
       id="path457"
       d="m 405.6531,973.14474 c 7.00239,-1.12517 13.97249,-2.44221 20.97424,-3.56857 3.73695,-0.63624 7.50538,-0.6319 11.2672,-0.33197 5.64031,0.43227 6.25163,-7.54433 0.61132,-7.97661 v 0 c -4.39103,-0.32544 -8.79078,-0.32888 -13.15061,0.41037 -7.05279,1.13723 -14.07491,2.45851 -21.12823,3.59492 -5.56625,1.00838 -4.14017,8.88026 1.42608,7.87186 z" /><path
       style="fill:#ff5555;stroke-width:0.264583"
       id="path459"
       d="m 471.16171,1046.9006 c 4.15229,-6.2999 8.28487,-12.6125 12.50516,-18.8672 1.3479,-1.9863 2.71354,-3.9615 4.23212,-5.8218 3.56587,-4.3914 -2.64451,-9.4343 -6.21041,-5.0429 v 0 c -1.65835,2.0506 -3.18251,4.2014 -4.65341,6.3902 -4.22743,6.2659 -8.36827,12.5888 -12.52717,18.9001 -3.14071,4.7049 3.513,9.1465 6.65371,4.4416 z" /><path
       style="fill:#ff5555;stroke-width:0.264583"
       id="path461"
       d="m 486.73437,1127.1301 c 5.27378,-1.7428 10.55579,-3.4504 15.76748,-5.3739 1.49479,-0.5045 2.93018,-1.2405 4.47804,-1.5867 5.49437,-1.3461 3.59077,-9.1163 -1.9036,-7.7702 v 0 c -1.83213,0.463 -3.58653,1.1693 -5.3454,1.8521 -5.2006,1.9211 -10.47612,3.6123 -15.73564,5.3622 -5.31495,1.9369 -2.57583,9.4533 2.73912,7.5165 z" /><path
       style="fill:#ff5555;stroke-width:0.264583"
       id="path463"
       d="m 403.68077,1187.3769 c 3.50035,-3.4454 7.2432,-6.6171 11.33252,-9.3377 1.7031,-0.9283 3.40416,-2.1776 5.38097,-2.4323 5.56146,-1.0345 4.0985,-8.8996 -1.46296,-7.8651 v 0 c -3.02909,0.6184 -5.77342,1.9798 -8.36761,3.649 -4.50316,3.0289 -8.67037,6.4943 -12.52699,10.3165 -4.00902,3.991 1.63507,9.6606 5.64407,5.6696 z" /></g></svg>
