<?xml version="1.0" encoding="UTF-8" standalone="no"?>
<!-- Created with Inkscape (http://www.inkscape.org/) -->

<svg
   width="1122.6199mm"
   height="1397.6406mm"
   viewBox="0 0 1122.6199 1397.6406"
   version="1.1"
   id="svg33"
   xml:space="preserve"
   inkscape:export-filename="bitmap.png"
   inkscape:export-xdpi="96"
   inkscape:export-ydpi="96"
   xmlns:inkscape="http://www.inkscape.org/namespaces/inkscape"
   xmlns:sodipodi="http://sodipodi.sourceforge.net/DTD/sodipodi-0.dtd"
   xmlns="http://www.w3.org/2000/svg"
   xmlns:svg="http://www.w3.org/2000/svg"><sodipodi:namedview
     id="namedview35"
     pagecolor="#ffffff"
     bordercolor="#000000"
     borderopacity="0.25"
     inkscape:showpageshadow="2"
     inkscape:pageopacity="0.18823529"
     inkscape:pagecheckerboard="false"
     inkscape:deskcolor="#d1d1d1"
     inkscape:document-units="mm"
     showgrid="false"
     showguides="false" /><defs
     id="defs30" /><g
     inkscape:label="Layer 1"
     inkscape:groupmode="layer"
     id="layer1"
     transform="translate(-45.857773,-45.245229)"><path
       style="fill:#008000;stroke-width:0.346607"
       d="m 55.585795,468.55899 -8.440784,-29.94867 10.866627,-24.36423 15.495602,-12.67692 4.084343,-13.19535 -13.614366,3.29886 -13.09448,-4.17068 -2.0546,-15.59878 -2.970368,-13.59586 10.940954,-10.27351 -3.242672,-6.07928 8.094372,-12.60624 -2.970369,-10.81541 25.273086,-13.05398 -1.905958,-11.14536 9.57948,-6.03214 -2.475313,-7.9643 18.862071,-8.64767 13.26772,-25.61146 -6.85658,-7.68155 -4.28235,-32.58774 5.86653,-6.36204 -7.72302,-6.78616 3.01986,-6.47984 c 0,0 -15.817302,-11.9229 -15.743082,-13.7137 0.0743,-1.7908 13.143972,-11.97005 13.143972,-11.97005 l 0.0652,-11.99688 10.00942,3.09005 -1.95555,-9.66086 28.36735,-23.61493 1.48523,-19.439528 17.37684,-17.083223 6.95565,7.210298 7.0547,-11.380964 17.55009,-2.332753 17.45113,-11.074636 10.12412,-3.982161 3.61394,-8.836155 17.47587,-6.149962 3.98527,9.213161 -11.01524,9.613743 2.30207,14.962542 25.66917,-11.82865 24.62965,-6.267785 25.37212,1.295969 7.7973,11.545912 17.20357,2.120674 30.32278,-5.160319 13.68859,6.149973 24.65438,0.306313 15.96587,-9.42523 32.22885,-8.859705 19.23334,-1.201722 -12.12915,12.205666 12.32712,0.494826 15.89168,4.971817 13.04502,7.964311 -0.89113,9.990736 2.64859,7.587322 14.3074,-5.231005 18.86203,5.843635 13.96092,6.14996 16.98321,13.39596 0.12381,10.93324 3.88621,-3.58157 11.83209,3.69942 14.753,9.59013 4.95062,6.07929 8.06965,-1.43734 11.63406,1.24883 10.47064,0.65976 1.83178,-5.3488 20.14917,-0.23564 26.01572,5.51376 10.47075,0.32989 12.67365,0.80113 17.27789,10.79188 22.69868,12.4413 10.5697,9.18961 c 0,0 5.14864,13.57235 5.69326,15.83441 0.54464,2.26205 9.92611,19.48666 9.92611,19.48666 0,0 17.67389,7.96428 18.61451,9.70797 0.94061,1.74366 0.61882,9.331 0.61882,9.331 l -19.45613,21.77224 -19.55513,19.65163 -7.327,12.39414 -1.11387,7.51665 c 0,0 12.94594,-6.29137 15.52031,-7.72872 2.57438,-1.43731 12.52525,-9.04818 12.52525,-9.04818 l 2.97035,14.6798 17.42639,6.05569 17.45106,-2.73332 5.09915,1.81436 8.04488,-7.87005 10.94097,-13.97291 23.11964,-6.97467 21.75811,8.08214 27.57525,7.49303 20.39676,13.31316 6.95565,10.93328 18.83732,-3.08678 28.91185,7.98786 20.768,2.37989 27.6743,-2.00286 37.5756,16.72976 28.6935,23.67928 22.6246,11.71087 27.0554,0.25921 10.3717,14.30279 7.0051,19.20389 3.0447,26.17858 -10.0746,26.95617 -23.1692,24.17568 -24.3573,17.08324 -13.5895,24.59983 -12.8718,15.66944 -10.3468,-4.38271 -7.0053,21.67802 c 0,0 -2.8219,20.45272 -1.906,19.9815 0.9158,-0.47127 6.4112,23.77512 6.4112,23.77512 l -8.9821,25.3418 0.3959,13.61944 -12.5251,10.62694 -1.2624,28.2757 c 0,0 -7.8962,3.60516 -8.2924,5.39595 -0.3961,1.7908 -8.2182,17.24816 -8.2182,17.24816 l -10.4211,7.54019 -4.109,22.6441 c 0,0 -15.9163,4.5241 -17.0055,6.1971 -1.0891,1.67298 -6.43591,6.03213 -6.43591,6.03213 l 2.3269,4.99536 -16.88188,3.20458 -22.47596,0.75402 -15.24811,-1.2017 -7.3765,1.83793 4.28233,5.1603 -19.28278,6.9511 -1.78227,5.39595 -13.26776,-2.02643 -23.83755,14.70336 -15.86685,9.5195 -2.15352,9.51945 -9.05974,0.21208 -2.05445,10.86259 0.42081,26.6734 -3.35439,23.19682 -1.06441,10.46196 -10.9905,4.61839 -11.6836,13.71371 -13.83707,26.64982 -24.97617,24.10501 -11.68354,9.82583 -6.16359,17.03608 -11.41125,9.82581 -9.01022,15.05681 c 0,0 -11.93116,9.82585 -13.66388,10.72115 -1.73267,0.8954 -21.18883,2.969 -21.18883,2.969 l -7.20322,-1.2017 -9.72803,5.4666 -13.54004,-5.9379 -6.60913,-6.12638 -13.16882,2.52118 -7.82207,-8.78896 -3.81202,9.14246 11.63409,6.8097 12.12915,5.5609 4.90114,6.3385 -4.92587,9.9672 7.35174,8.5062 8.06951,1.1074 0.81695,10.9568 -12.72322,20.8063 -2.17828,6.4092 -31.41204,15.4338 -22.67405,6.4798 -22.42655,1.6023 -12.20335,-1.8851 2.72286,8.1294 3.34172,11.3808 -3.93575,8.8126 3.80423,9.7414 -3.66349,6.8098 -16.48571,5.0189 -10.0499,1.2253 -18.78773,-7.4694 -5.19823,8.4119 4.50507,9.0011 2.02988,10.5799 8.46559,2.2855 2.35156,4.7835 -7.72301,5.7022 10.9657,5.8672 -10.07458,9.2368 -1.46046,16.4468 -2.72293,12.3943 1.98027,4.7835 -16.33716,4.0291 -8.83698,7.2575 -3.26741,14.9625 8.78742,13.4309 20.69381,4.972 3.63876,11.7578 0.59409,7.9407 -10.66872,8.6479 -11.1142,10.0377 0.91587,17.2955 -3.3417,6.8565 -9.50533,6.6451 -7.15363,5.9848 2.37625,10.8626 c 0,0 2.57731,8.7899 3.51792,10.8161 0.94062,2.0266 8.28919,11.9727 8.28919,11.9727 l -7.00205,2.3061 -1.03968,6.6212 9.05974,0.025 6.53491,4.8775 3.49024,7.4695 17.45102,14.2557 19.06005,6.4798 14.72827,0.8483 -0.51979,6.1499 -13.51533,4.2178 -13.83708,-1.2018 -16.53526,0.1885 -13.56481,4.8304 -13.81234,-7.2573 -4.03478,-10.1557 c 0,0 -3.53974,-11.1924 -5.32199,-11.6637 -1.78227,-0.4713 -8.34186,-5.0895 -8.34186,-5.0895 l -0.12381,11.6634 -8.31711,7.5403 -19.57995,-6.0793 c 0,0 -13.49056,-9.6137 -15.6936,-12.2291 -2.20301,-2.6156 -8.26764,-14.9625 -8.88646,-16.6121 -0.61883,-1.6494 -11.08946,-16.8711 -11.08946,-16.8711 l -11.26271,-10.6034 0.99009,-14.821 c 0,0 -7.57451,-17.9787 -7.72301,-19.6753 -0.14856,-1.6965 3.46539,-10.297 3.46539,-10.297 l -12.12913,-3.0868 -1.78217,-14.4206 6.46059,-8.5534 -17.79764,-3.2046 -7.57449,8.8597 -6.18838,-7.3515 6.85669,-18.8035 15.76788,-4.5949 8.0448,10.5801 0.69316,-11.8289 -1.38621,-17.1774 9.22075,-6.1016 -0.27231,-6.2915 -11.46072,-3.4635 2.02972,-8.6478 -4.80211,-8.6949 4.55454,-9.3546 -4.33177,-8.9775 2.82182,-12.7711 -6.85663,-7.0925 -4.45559,5.2546 -9.38149,2.097 -8.93605,-12.8418 -1.21281,-28.629 6.5843,-0.6599 -1.16334,-12.2056 c 0,0 -11.98063,-15.5515 -12.15387,-17.6723 -0.17328,-2.1206 -0.0496,-7.8936 -0.0496,-7.8936 l -6.08925,-11.8522 7.47544,-5.938 2.17839,-14.0671 1.83174,-26.2492 2.28645,-23.0984 7.3765,-13.9729 c 0,0 -8.06955,-7.1396 -7.4507,-8.7655 0.61882,-1.6258 6.65864,-15.64583 6.65864,-15.64583 l -16.08972,-41.73017 7.1043,-9.94364 -8.53992,-20.8062 4.55461,-17.43665 -1.28724,-22.52632 c 0,0 5.04968,-17.62516 4.08434,-19.43953 -0.96536,-1.81434 -7.45067,-8.93038 -6.63387,-10.76831 0.81685,-1.83794 5.718,-11.9229 5.718,-11.9229 l -5.22294,-31.12685 -6.33681,-8.27064 2.35152,-7.82295 3.0693,-29.62538 -6.43588,-29.97224 -7.87162,-29.64233 -2.00504,-8.4356 c 0,0 -21.18891,-8.69477 -22.40177,-10.29705 -1.21281,-1.60229 -6.16354,-10.01429 -6.16354,-10.01429 0,0 -23.98587,-3.48732 -25.1493,-5.72585 -1.16349,-2.23849 -31.06553,-10.27347 -31.06553,-10.27347 l -24.53048,-6.85686 -13.34205,-3.62872 -17.77291,-13.10107 -14.97581,-17.03611 2.22785,-10.10856 -11.63408,-7.65799 -15.62354,-13.1335 -2.50005,-13.03043 -10.0994,-3.53445 -37.27844,-49.78875 -7.20323,-8.60053 -9.97561,-5.79648 -13.960872,-17.93154 -19.282879,-9.49593 z"
       id="path279"
       sodipodi:nodetypes="cccccccccccccccccccccccccccccccccccccccccccccccccccccccccccccccccccccccccccccccscscccccsccccccccccccccccccccccccccccccscccccscccsccccccccccccccccccccccccccsccccccccccccccccccccccccccccccccccccccccccccccccccccccsccccccccccccccccsccccsscccscccccccccccccccccccccccccccscccccccsccccccssccccccccscscccccccccccccccc" /></g></svg>
