<?xml version="1.0" encoding="UTF-8" standalone="no"?>
<!-- Created with Inkscape (http://www.inkscape.org/) -->

<svg
   width="1122.6199mm"
   height="1397.6406mm"
   viewBox="0 0 1122.6199 1397.6406"
   version="1.1"
   id="svg33"
   xml:space="preserve"
   inkscape:export-filename="../30016981/territories.svg"
   inkscape:export-xdpi="96"
   inkscape:export-ydpi="96"
   sodipodi:docname="bitmap.svg"
   inkscape:version="1.2.2 (732a01da63, 2022-12-09, custom)"
   xmlns:inkscape="http://www.inkscape.org/namespaces/inkscape"
   xmlns:sodipodi="http://sodipodi.sourceforge.net/DTD/sodipodi-0.dtd"
   xmlns="http://www.w3.org/2000/svg"
   xmlns:svg="http://www.w3.org/2000/svg"><sodipodi:namedview
     id="namedview35"
     pagecolor="#ffffff"
     bordercolor="#000000"
     borderopacity="0.25"
     inkscape:showpageshadow="2"
     inkscape:pageopacity="0.18823529"
     inkscape:pagecheckerboard="false"
     inkscape:deskcolor="#d1d1d1"
     inkscape:document-units="mm"
     showgrid="false"
     showguides="true"
     inkscape:zoom="0.25272835"
     inkscape:cx="1440.2816"
     inkscape:cy="2348.3713"
     inkscape:window-width="1920"
     inkscape:window-height="1080"
     inkscape:window-x="1680"
     inkscape:window-y="27"
     inkscape:window-maximized="1"
     inkscape:current-layer="layer3" /><defs
     id="defs30" /><g
     inkscape:groupmode="layer"
     id="layer2"
     inkscape:label="Layer 2"
     style="display:inline"><path
       style="display:inline;fill:#d4aa00;stroke-width:0.264583"
       d="M 101.0578,202.44964 87.970433,188.16868 80.422267,165.109 l 12.296056,-8.16053 -12.600467,-6.86228 9.496036,-15.45554 -15.035498,-10.75707 13.209289,-6.98592 0.18275,-17.80482 24.835697,-20.772249 2.19145,-18.175745 9.25271,-6.058572 33.17518,-11.931692 20.33138,-16.135605 4.01766,18.855781 10.71343,9.829731 30.67982,-13.60089 23.55748,-4.203909 19.0529,6.058569 23.67941,10.015212 4.3829,27.943656 -18.93125,18.42303 7.42624,34.373143 -8.33948,27.82002 -19.6009,33.81675 -6.02636,27.38724 -44.19327,-19.90674 -45.7759,10.38614 -27.75763,-14.40461 z"
       id="path755" /><path
       style="fill:#ff6600;stroke-width:0.264583"
       d="m 315.02397,54.199916 23.07058,-0.803695 27.51429,1.112803 30.436,-19.783121 22.27926,6.98591 23.49664,4.822143 7.12208,23.306992 14.48777,12.055321 14.06144,-11.560749 29.27942,16.753819 7.48734,13.600891 20.45306,-0.24729 19.47923,16.93929 -17.40945,29.05645 -42.30624,27.38725 -43.15835,10.63343 -54.66337,-21.63778 c 0,0 -56.67208,-16.75382 -59.59403,-21.45232 -2.92193,-4.6985 -42.61062,-22.56511 -42.61062,-22.56511 l 22.6445,-29.489205 z"
       id="path812" /><path
       style="fill:#d4aa00;stroke-width:0.264583"
       d="m 569.04384,124.86273 26.47939,2.28742 13.2093,-11.49892 22.58367,8.34599 32.32327,3.89479 25.32287,25.47078 26.90548,27.63453 2.31312,19.16489 -29.40134,31.65299 -11.32226,26.52171 -57.64589,7.48049 -76.51654,19.53583 -19.7834,-53.66167 29.64468,-27.32546 -21.24437,-33.07488 z"
       id="path814" /><path
       style="fill:#ff6600;stroke-width:0.264583"
       d="m 492.10145,384.02148 c 2.25229,-4.20385 35.30581,-32.8894 35.30581,-32.8894 l 16.92254,-33.44582 -19.90532,-18.85579 -12.90487,-43.3992 -8.40031,-30.10742 31.22729,-18.97943 -14.06144,-23.9252 -44.68016,22.68877 -22.40092,3.46204 -35.24522,-14.89918 -35.8538,24.48164 -3.22609,42.41003 15.33967,54.46539 -26.78356,37.83524 38.22772,44.88291 31.83612,-11.86985 37.25394,29.551 z"
       id="path816" /><path
       style="fill:#ff6600;stroke-width:0.264583"
       d="m 299.13633,146.56233 c 0,0 26.54024,24.66703 31.53171,25.3471 4.99147,0.68007 33.17542,3.95664 33.17542,3.95664 l 27.45348,8.09871 -32.87101,29.24193 1.21738,42.90463 4.50458,40.92631 -12.90489,51.00336 -46.44554,38.14426 -55.88077,-26.89262 -28.97527,-49.14868 29.0361,-43.21373 -19.47924,-23.92522 35.8538,4.88396 4.13932,-25.96535 17.65303,-26.7072 z"
       id="path818" /><path
       style="fill:#ff6600;stroke-width:0.264583"
       d="m 85.048496,214.56678 31.044804,16.32107 18.01827,-4.57483 19.35732,18.79396 29.76659,-18.9176 22.82699,6.67679 11.80915,33.69309 -23.00948,33.8786 21.67043,46.05756 -51.19369,22.31787 -52.95883,30.84928 -36.888425,-39.25713 -28.5492,6.3677 7.304585,-29.30377 -20.818287,-10.69523 2.861106,-34.18771 26.601073,-26.83084 22.644497,-46.61396 z"
       id="path820" /><path
       style="fill:#d4aa00;stroke-width:0.264583"
       d="m 21.071579,397.93156 13.331207,-20.03042 33.966748,0.80365 31.957786,32.51848 23.31415,10.07708 18.62684,-18.42307 39.62787,-17.74293 41.69766,-15.70286 30.92314,11.43709 30.31433,26.8927 -8.33948,43.95557 -38.95822,57.61834 15.64407,43.70834 L 216.95865,577.2778 177.69602,550.5706 155.23427,522.81245 116.2758,490.85034 96.97931,455.67348 56.560124,421.11485 Z"
       id="path822" /><path
       style="fill:#ff6600;stroke-width:0.264583"
       d="m 302.54516,411.40877 38.71463,-30.7875 18.87043,-4.88392 22.52284,27.20179 21.91401,22.99785 28.1837,-20.27772 16.31397,24.17252 37.67974,12.67356 5.66113,61.20405 -33.84484,34.49678 14.7311,47.0467 -39.2018,30.72563 -86.25591,-45.68663 -47.29795,44.69749 -47.41936,-23.80155 37.31476,-33.01306 -19.66174,-43.02829 34.8189,-42.78098 z"
       id="path824" /><path
       style="fill:#ff6600;stroke-width:0.264583"
       d="m 561.55674,304.11422 c 3.34777,-4.26572 121.56173,-25.77986 121.56173,-25.77986 l 26.84465,-4.7603 31.4103,12.36445 37.61891,-5.19308 23.37498,-28.6237 36.64511,8.84057 27.39263,21.51414 -13.63536,65.16063 -36.21902,43.02829 -68.72481,17.31023 -57.34174,-28.3146 -85.46459,14.71372 -41.39325,-33.8786 z"
       id="path826" /><path
       style="fill:#ff6600;stroke-width:0.264583"
       d="m 507.25863,419.28904 40.48001,-45.93392 45.16733,41.48273 74.14234,-3.21477 34.02759,8.71694 39.93229,21.51414 54.6631,-25.22347 41.94098,58.66932 -63.30699,72.27019 -61.42024,54.27991 -53.08047,-64.10968 -86.62143,-15.14644 -5.72193,-33.38399 -52.95884,-8.46963 z"
       id="path828" /><path
       style="fill:#d4aa00;stroke-width:0.264583"
       d="m 322.63297,629.60826 21.85318,-24.91436 27.08798,4.45122 23.92297,21.88506 42.48872,8.16057 42.0629,-38.26798 29.15777,46.73761 -17.47027,52.61073 -31.95805,98.11189 -41.08884,-42.5337 -42.9148,30.29286 -29.03609,-8.65508 -4.56541,-43.09012 9.06997,-34.99135 z"
       id="path830" /><path
       style="fill:#ff6600;stroke-width:0.264583"
       d="m 887.64942,298.11747 33.23627,-0.55639 42.42787,-0.37092 37.01034,7.41867 36.1582,24.97617 38.7149,19.59763 26.175,11.18981 -1.7045,33.01307 -27.4533,23.73977 -31.958,30.91111 -7.5482,19.16491 -24.2879,3.0911 -7.0005,34.68224 c 0,0 -49.61102,0.61825 -48.27173,-4.32752 1.33932,-4.94581 1.09575,-54.40357 1.09575,-54.40357 l -0.42609,-30.47836 -53.14156,-14.34277 -40.60169,-19.53583 c 0,0 19.60116,-16.50654 19.11401,-25.16164 -0.48718,-8.6551 8.46113,-58.60748 8.46113,-58.60748 z"
       id="path834" /><path
       style="fill:#d4aa00;stroke-width:0.264583"
       d="m 818.19413,418.91812 28.2448,-16.56834 70.91624,27.01631 10.10463,32.58032 -5.66114,38.57704 18.07909,29.55105 47.96737,-2.16379 10.53092,44.26471 -19.05291,28.00549 4.86981,31.15841 -35.1233,20.89592 -13.75728,21.57593 -33.29709,9.21152 -32.93184,-34.2495 -16.0704,-35.42413 -16.61813,-49.58144 25.50559,-53.41442 8.40031,-41.29725 z"
       id="path836" /><path
       style="fill:#ff6600;stroke-width:0.264583"
       d="m 482.72707,540.27514 32.50579,-14.52822 28.24479,9.89158 25.1401,20.21583 42.97588,9.14972 36.40153,14.7755 32.3841,30.10744 20.57498,24.11068 0.42606,35.115 -46.08031,43.3992 -60.14199,42.90465 -41.57575,-29.42735 -49.42805,4.513 36.58401,-40.74086 0.97407,-34.92955 -16.92254,-27.82001 c 0,0 -21.60987,-28.43822 -22.58367,-33.50763 -0.97383,-5.06942 -19.479,-53.22898 -19.479,-53.22898 z"
       id="path838" /><path
       style="fill:#ff6600;stroke-width:0.264583"
       d="m 720.06798,620.5204 36.64511,-25.84169 16.67896,-27.75815 17.3486,-12.48807 21.67069,-22.99793 17.16588,-17.74298 5.53945,18.91763 -13.93976,25.40891 v 37.52615 l 13.20927,37.09328 16.61813,40.1845 21.18352,22.37962 -30.86229,18.42302 -39.14071,11.12805 -16.00957,33.81672 -0.66966,40.18446 -30.1924,27.38723 -41.57601,-30.78744 -18.566,-44.69749 -15.21799,-22.56512 24.04465,-16.25923 20.75743,-29.7365 3.40884,-32.02392 z"
       id="path840" /><path
       style="fill:#ff6600;stroke-width:0.264583"
       d="m 352.03431,802.84655 28.36646,9.89158 29.82743,-24.11071 23.25306,27.5727 30.5579,9.5825 19.78366,-10.63342 8.94802,-38.94802 21.18355,-17.74298 30.49706,5.68764 28.79254,36.9697 -17.34835,48.22134 -31.53199,51.74523 -50.15881,43.09006 -64.88988,15.45556 -41.75823,-10.57156 c 0,0 -10.83562,-30.7875 -10.34844,-35.48599 0.48715,-4.6985 2.37419,-45.99578 2.37419,-45.99578 z"
       id="path842" /><path
       style="fill:#ff6600;stroke-width:0.264583"
       d="m 596.01041,787.39099 33.54067,-24.04885 24.28796,-10.57158 21.12269,18.48485 21.00077,33.56943 25.07954,31.22028 11.9308,29.73649 -19.41814,34.31127 -35.67104,32.14757 -40.29752,-3.89478 -32.81019,-8.96421 -18.8704,26.15078 -30.37517,-20.52492 -3.28719,-45.93394 31.53172,-29.55105 z"
       id="path844" /><path
       style="fill:#d4aa00;stroke-width:0.264583"
       d="m 359.0345,981.26551 33.66233,-1.23642 37.49751,8.77872 41.14967,-20.3395 18.01799,33.19859 -38.10606,44.0174 -21.54877,63.4296 -8.09591,41.7918 -28.67086,22.5651 -9.92211,-11.3135 3.22609,-24.667 -8.70471,-20.3395 -15.82682,-7.7278 -6.45245,-24.9144 -0.60857,-34.9913 11.20035,-31.3439 z"
       id="path846" /><path
       style="fill:#ff6600;stroke-width:0.264583"
       d="m 491.06655,955.65462 22.03569,-19.96859 25.56643,6.12043 19.66174,20.52494 33.84508,10.38614 22.5834,6.24406 0.85241,28.1909 -18.01826,23.0597 -35.06248,-0.5564 -34.02758,9.8298 -3.95658,16.1974 -2.67862,20.7723 -22.52257,1.731 -12.35715,12.7354 -9.98295,24.1724 -17.65302,-6.5531 -0.36523,-31.7148 19.23566,-27.2018 23.74021,-24.7907 13.39178,-19.474 z"
       id="path848" /><path
       style="display:inline;fill:#ff6600;stroke-width:0.264583"
       d="m 427.82013,1356.4482 -24.28795,-31.5912 -10.16569,-37.0933 -0.60857,-44.1411 1.82594,-44.4502 32.14055,-23.9252 25.62725,-24.5434 2.61753,-17.5575 18.38351,2.8438 15.27884,7.7278 -6.75661,22.8742 -17.34862,14.8992 -9.61795,30.8493 7.66982,22.9978 18.07911,10.7571 -11.99166,17.9284 -11.2614,21.0196 -10.04404,25.6562 1.46098,27.3873 z"
       id="path850" /></g></svg>
